<svg xmlns="http://www.w3.org/2000/svg" width="600" height="600" fill="none"><g clip-path="url(#a)"><path fill="#171548" d="M1 331c0-19.688 0-39.375.39-59.549 3.763-.779 3.816-3.215 3.482-5.618-.295-2.13-1.499-4.23-1.396-6.299.19-3.836.14-8.135 1.887-11.308 1.504-2.732 2.547-4.722 1.398-7.671-.467-1.2-.748-2.62-.608-3.883 1.06-9.508 2.306-18.908 6.986-27.597 3.096-5.749 5.441-11.934 7.74-18.066 1.574-4.201 1.54-9.001 6.648-11.361 1.56-.72 3.092-3.574 3.002-5.369-.21-4.208 2.803-5.982 4.945-8.535 2.61-3.11 5.317-6.178 7.565-9.543 3.942-5.9 6.7-12.839 11.495-17.873 12.09-12.694 21.414-27.829 35.323-38.932 9.954-7.947 19.064-16.943 28.821-25.149 19.741-16.603 42.118-29.062 65.27-40.086 11.682-5.563 23.562-11.339 35.992-14.523 12.38-3.171 25.543-4.202 38.393-4.423 23.781-.408 47.584.457 71.378.805a14.06 14.06 0 0 1 2.472.276c9.573 1.867 19.073 4.309 28.727 5.5 13.935 1.72 26.774 6.561 39.044 12.812 21.603 11.004 42.202 23.661 61.244 38.813 19.827 15.778 37.442 33.708 53.136 53.517 7.259 9.163 14.665 18.399 20.406 28.509 3.888 6.847 8.003 13.566 11.799 20.419 6.114 11.041 10.475 23.054 15.548 34.669 1.907 4.367 3.736 8.769 5.6 13.155.54 2.018-.477 4.501-.208 6.836.719 6.215 1.874 12.389 3.081 18.535.953 4.854 3.186 9.637 3.213 14.46.103 18.293-.245 36.596-.857 54.88-.345 10.304 1.73 20.572-1.705 30.97-3.651 11.051-1.216 23.409-6.194 34.431-3.261 7.221-6.085 14.638-9.155 21.946-1.083 2.579-2.401 5.059-3.462 7.646-1.945 4.744-2.892 10.187-5.829 14.179-8.19 11.129-15.013 23.036-21.846 34.97-.577 1.008-1.083 2.097-1.842 2.953-6.359 7.17-12.598 14.458-19.202 21.397-10.986 11.543-21.587 23.571-33.526 34.055-11.302 9.924-23.818 18.575-36.36 26.946-10.333 6.897-21.3 12.921-32.337 18.657-7.789 4.048-15.897 8.013-24.334 10.184-21.876 5.628-44.268 9.29-66.808 9.996-27.722.868-55.563 1.533-83.137-2.916-1.557-.251-2.793-2.493-3.99-4.016-.272-1.404-.731-2.602-.787-3.782 4.951.993 9.455 2.447 14.053 2.859 16.687 1.496 33.324 3.039 50.19 1.313 14.498-1.484 29.135.444 43.79-1.85 10.079-1.578 19.606-5.656 29.895-5.92.637-.016 1.185-1.106 1.886-1.495 1.274-.706 2.583-1.417 3.964-1.851 6.576-2.068 13.561-3.256 19.695-6.219 11.945-5.77 23.741-11.996 34.998-19 11.978-7.454 24.013-15.154 34.662-24.327 14.193-12.226 27.292-25.763 40.428-39.161 7.072-7.214 13.862-14.876 19.672-23.117a542.077 542.077 0 0 0 25.024-38.941c8.329-14.261 17.165-28.371 19.054-45.523.989-8.975 3.894-17.729 5.083-26.696 1.26-9.499 1.819-19.123 2.123-28.71.349-10.987.097-21.993.064-32.991-.005-1.654-.17-3.317-.38-4.96-1.517-11.903-2.943-23.819-4.639-35.697-1.607-11.257-2.302-22.758-7.251-33.267-3.326-7.06-6.553-14.218-10.547-20.901-8.011-13.401-15.959-26.903-24.985-39.617-8.146-11.474-17.478-22.14-26.701-32.804-6.27-7.251-12.912-14.261-20.009-20.693-7.694-6.974-15.907-13.426-24.261-19.608-9.609-7.109-19.356-14.102-29.53-20.353-10.459-6.426-21.27-12.395-32.37-17.623-8.58-4.04-17.737-6.98-26.841-9.741-6.13-1.86-12.568-2.96-18.95-3.688-14.945-1.706-29.922-3.934-44.917-4.197-18.91-.33-37.863.842-56.774 1.831-12.809.67-25.146 3.824-36.839 9.265-30.393 14.143-59.463 30.248-85.353 52.003-19.165 16.105-36.989 33.283-52.264 53.085-15.271 19.799-26.679 41.998-39.375 63.406-8.419 14.195-8.413 30.518-11.474 45.857-3.513 17.605-4.668 35.857-3.611 54.056.511 8.802-.025 17.66.149 26.488.061 3.113.79 6.217 1.271 9.315 1.542 9.916 2.97 19.853 4.71 29.734 1.544 8.774 2.5 17.822 5.462 26.126 2.865 8.033 7.87 15.322 12.092 22.849 6.007 10.705 11.456 21.815 18.402 31.883 12.606 18.268 26.223 35.841 42.652 50.952 8.186 7.529 16.328 15.176 25.114 21.963 10.625 8.208 21.602 16.058 32.998 23.144 11.262 7.002 23.032 13.28 34.968 19.076 8.745 4.247 18.143 7.141 27.185 10.797 1.222.494 2.068 1.916 2.623 2.912-4.823.008-9.181.012-13.539.017 0 0-.005-.008-.101-.348-1.368-.774-2.641-1.208-4.244-1.644-.771 0-1.211.001-1.906-.243-2.572-1.16-4.972-1.907-7.192-3.016-19.884-9.933-40.154-19.26-57.958-32.785-12.405-9.422-24.746-19.019-36.3-29.442-10.169-9.174-19.39-19.433-28.67-29.544-5.36-5.84-10.3-12.126-14.899-18.589-5.448-7.657-9.866-16.08-15.65-23.449-2.739-3.489-7.088-5.626-7.173-10.879-.01-.631-.947-1.22-1.38-1.878-1.893-2.883-4.048-5.64-5.575-8.708-2.976-5.982-5.602-12.139-8.362-18.228-2.19-4.832-5.492-9.503-6.25-14.553-.879-5.858-.791-11.827-1.766-17.834-.808-4.98-1.23-9.87-2.738-14.874-1.138-3.778.418-8.392.879-12.622C5.052 334.265 5.742 331.08 1 331Z"/><path fill="#161542" d="M397 601c-17.021 0-34.042 0-51.416-.36a4.945 4.945 0 0 1 2.67-1.627c12.292-2.807 24.598-5.553 36.893-8.351.622-.142 1.166-.623 1.752-.935 6.995-3.724 14.001-7.429 20.985-11.176 5.811-3.117 11.711-6.093 17.365-9.477 6.496-3.889 12.757-8.169 19.135-12.257 5.733-3.675 11.895-6.813 17.15-11.074 14.626-11.862 29.218-23.8 42.02-37.726 2.795-3.04 6.356-5.395 9.04-8.516 5.045-5.869 9.909-11.919 14.484-18.161 7.735-10.551 15.54-21.082 22.65-32.052 5.94-9.166 10.48-19.243 16.452-28.385 7.332-11.226 12.51-23.641 16.109-36.087 3.987-13.782 4.065-28.709 5.66-43.158.49-4.444-.85-9.497.836-13.301 2.173-4.901 2.176-9.605 2.199-14.53.051-10.999.094-21.999-.054-32.996-.028-2.049-.98-4.083-1.477-6.13-.502-2.065-1.267-4.119-1.403-6.211-.784-12.051-1.144-24.136-2.217-36.158-.498-5.576-1.584-11.313-3.631-16.491-4.001-10.122-8.258-20.236-13.504-29.749-8.878-16.098-17.881-32.22-28.191-47.409-9.43-13.892-20.346-26.828-31.224-39.662-5.657-6.674-12.492-12.394-19.072-18.232-9.63-8.544-19.063-17.412-29.397-25.034-12.24-9.028-25.133-17.235-38.155-25.118-9.117-5.52-18.934-9.883-28.416-14.806-2.62-1.36-5.111-2.976-7.76-4.272-.987-.483-2.262-.362-3.397-.565-1.448-.259-2.903-.507-4.33-.863-8.126-2.03-16.252-4.057-24.36-6.156C350.908 3.07 347.464 1.997 344 1c19.354 0 38.708 0 58.613.338 2.178 1.401 3.711 2.664 5.452 3.486 4.511 2.13 9.277 3.762 13.653 6.127 24.103 13.028 48.032 26.337 68.543 44.88 8.747 7.907 18.04 15.248 26.391 23.544 7.622 7.572 14.947 15.62 21.272 24.284 12.627 17.296 25.548 34.534 36.326 52.976 9.159 15.673 15.438 33.024 23.127 49.568.698 1.503 2.392 2.542 3.623 3.797 0 58.021 0 116.042-.341 174.623-2.762 5.94-5.179 11.322-7.606 16.699-4.229 9.371-7.928 19.031-12.824 28.04-7.361 13.547-15.101 26.94-23.539 39.836-7.886 12.049-16.062 24.106-25.618 34.814-11.459 12.84-24.081 24.746-37.013 36.132-10.657 9.382-22.303 17.694-33.893 25.942-6.722 4.784-14.12 8.648-21.356 12.669-9.413 5.231-18.96 10.222-28.466 15.285-4.428 2.358-8.895 4.642-13.344 6.96Z"/><path fill="#171545" d="M343.531 1c3.933.997 7.377 2.071 10.865 2.975 8.108 2.099 16.234 4.126 24.36 6.156 1.427.356 2.882.604 4.33.863 1.135.203 2.41.082 3.397.565 2.649 1.296 5.14 2.912 7.76 4.272 9.482 4.924 19.299 9.286 28.416 14.806 13.022 7.883 25.915 16.09 38.155 25.118 10.334 7.622 19.767 16.49 29.397 25.034 6.58 5.838 13.415 11.558 19.072 18.232 10.878 12.834 21.794 25.77 31.224 39.662 10.31 15.189 19.313 31.311 28.191 47.409 5.246 9.513 9.503 19.627 13.504 29.749 2.047 5.178 3.133 10.915 3.631 16.491 1.073 12.022 1.433 24.107 2.217 36.158.136 2.092.901 4.146 1.403 6.211.497 2.047 1.449 4.081 1.477 6.13.148 10.997.105 21.997.054 32.996-.023 4.925-.026 9.629-2.199 14.53-1.686 3.804-.346 8.857-.836 13.301-1.595 14.449-1.673 29.376-5.66 43.158-3.599 12.446-8.777 24.861-16.109 36.087-5.972 9.142-10.512 19.219-16.452 28.385-7.11 10.97-14.915 21.501-22.65 32.052-4.575 6.242-9.439 12.292-14.484 18.161-2.684 3.121-6.245 5.476-9.04 8.516-12.802 13.926-27.394 25.864-42.02 37.726-5.255 4.261-11.417 7.399-17.15 11.074-6.378 4.088-12.639 8.368-19.135 12.257-5.654 3.384-11.554 6.36-17.365 9.477-6.984 3.747-13.99 7.452-20.985 11.176-.586.312-1.13.793-1.752.935-12.295 2.798-24.601 5.544-36.893 8.351-1.05.24-2.017.837-3.139 1.627-41.803.36-83.49.36-125.733.015-2.072-1.245-3.499-2.369-5.118-3.006-10.18-4.001-20.42-7.849-30.594-11.864-1.693-.668-3.162-1.905-5.4-3.291 2.214-1.168 3.472-1.832 5.183-2.495 5.168-.005 9.888-.137 14.598.027 3.011.105 4.273-1.073 4.281-4.027.776-.003 1.219-.006 1.662-.009 0 0 .005.008.008.398-.219 3.388 1.715 3.723 3.922 3.953-1.966 2.464-2.256 4.622.73 5.745 2.921 1.1 6.034 1.914 9.131 2.285 13.806 1.654 27.609 3.964 41.465 4.41 17.591.567 35.265.107 52.843-.937 13.991-.831 27.868-3.429 41.836-4.838 22.111-2.232 42.264-10.334 61.133-21.31 15.893-9.244 31.293-19.496 46.115-30.386 23.133-16.996 43.575-37.014 60.796-60.033 9.626-12.866 18.655-26.227 27.197-39.84 6.683-10.651 11.982-22.161 18.303-33.053 5.59-9.63 8.392-20.172 10.334-30.862 2.021-11.126 3.638-22.452 3.962-33.733.653-22.733.462-45.496.275-68.244-.051-6.2-1.226-12.404-2.068-18.581-1.335-9.795-2.729-19.585-4.294-29.345-.628-3.916-1.773-7.749-2.737-11.978-1.925-4.58-3.463-8.99-5.751-12.971-2.729-4.749-6.101-9.13-9.212-14.034-1.006-2.788-1.994-5.212-3.047-7.942-.688-.768-1.312-1.231-1.935-1.944 0-.25 0-.75-.054-1.107-1.692-3.783-2.968-7.451-5.065-10.568-2.22-3.299-5.221-6.072-7.95-9.394-.69-1.439-1.311-2.56-1.987-4.028-1.979-3.562-3.639-6.977-5.896-9.937-2.387-3.131-5.341-5.829-8.101-9.048-1.018-1.111-1.982-1.889-2.959-3.035-.343-1.29-.435-2.427-1.041-3.106-8.173-9.154-16.362-18.295-24.676-27.32-2.581-2.802-5.516-5.285-8.347-7.849-7.232-6.552-14.145-13.523-21.844-19.475-8.496-6.569-17.548-12.473-26.676-18.155-12.244-7.622-24.577-15.156-37.266-21.995-16.433-8.856-34.749-12.227-52.834-15.38-14.812-2.58-29.981-3.422-45.035-4.212-12.631-.663-25.44-1.207-37.955.16-12.394 1.356-24.903-2.051-37.102 1.657-.612.185-1.349-.075-1.989.059-6.515 1.358-13.208 2.196-19.484 4.285-7.378 2.456-14.379 6.04-21.568 9.075-16.679 7.04-32.99 14.86-47.713 25.458-14.792 10.648-29.441 21.538-43.588 33.018-7.658 6.213-14.325 13.703-21.101 20.934-7.241 7.727-14.691 15.38-20.953 23.874-8.44 11.451-16.458 23.318-23.506 35.664-7.53 13.19-13.726 27.143-20.49 40.77C5.524 207.719 3.272 212.364 1 217c0-6.021 0-12.042.336-18.619.837-1.179 1.47-1.736 1.82-2.436 4.956-9.937 9.368-20.189 14.93-29.773 7.141-12.307 15.319-24.008 22.834-36.104C51.525 113 65.25 98.534 79.301 84.435c7.196-7.22 15.357-13.57 23.554-19.68 13.296-9.913 26.199-20.75 40.686-28.571 20.848-11.255 42.96-20.17 64.549-30.048C212.021 4.338 216.028 2.708 220 1h123.531Z"/><path fill="#171646" d="M553.001 172s0 .5.064 1.056c.689 1.018 1.312 1.481 1.936 1.944.988 2.424 1.976 4.848 2.995 8.017.836 3.081 1.256 5.654 2.516 7.713 3.994 6.526 8.302 12.861 12.489 19.27.909 3.87 2.054 7.703 2.682 11.619 1.564 9.76 2.959 19.55 4.294 29.345.842 6.177 2.017 12.381 2.068 18.581.187 22.748.378 45.511-.275 68.244-.324 11.281-1.942 22.607-3.963 33.733-1.941 10.69-4.744 21.232-10.333 30.862-6.321 10.892-11.62 22.402-18.304 33.053-8.541 13.613-17.571 26.974-27.197 39.84-17.22 23.019-37.663 43.037-60.795 60.033-14.823 10.89-30.222 21.142-46.115 30.386-18.869 10.976-39.022 19.078-61.134 21.31-13.968 1.409-27.845 4.007-41.836 4.838-17.577 1.044-35.251 1.504-52.842.937-13.856-.446-27.659-2.756-41.465-4.41-3.097-.371-6.21-1.185-9.132-2.285-2.985-1.124-2.696-3.282-.332-5.75 3.215-.667 5.956-1.001 8.943-1.335.246-.001.738-.001 1.073.15 1.778.386 3.221.621 4.663.856 1.386 1.315 2.622 3.557 4.179 3.808 27.573 4.449 55.414 3.784 83.137 2.916 22.54-.706 44.931-4.368 66.808-9.996 8.437-2.171 16.544-6.136 24.334-10.184 11.037-5.736 22.004-11.76 32.336-18.657 12.542-8.371 25.058-17.022 36.361-26.946 11.939-10.484 22.539-22.512 33.525-34.055 6.604-6.939 12.844-14.227 19.202-21.397.76-.856 1.265-1.945 1.842-2.953 6.834-11.934 13.657-23.841 21.846-34.97 2.938-3.992 3.884-9.435 5.83-14.179 1.06-2.587 2.378-5.067 3.462-7.646 3.07-7.308 5.894-14.725 9.155-21.946 4.978-11.022 2.542-23.38 6.193-34.431 3.436-10.398 1.361-20.666 1.706-30.97.612-18.284.96-36.587.856-54.88-.027-4.823-2.26-9.606-3.213-14.46-1.207-6.146-2.362-12.32-3.08-18.535-.27-2.335.747-4.818.207-6.836-1.864-4.386-3.692-8.788-5.6-13.155-5.073-11.615-9.434-23.628-15.548-34.669-3.795-6.853-7.911-13.572-11.799-20.419-5.741-10.11-13.146-19.346-20.406-28.509-15.693-19.809-33.308-37.74-53.136-53.517-19.041-15.152-39.641-27.81-61.243-38.813-12.271-6.25-25.109-11.092-39.044-12.812-9.655-1.191-19.155-3.633-28.727-5.5a14.083 14.083 0 0 0-2.473-.276c-23.793-.348-47.596-1.213-71.377-.805-12.85.221-26.013 1.252-38.393 4.423-12.43 3.184-24.311 8.96-35.993 14.523-23.151 11.024-45.528 23.483-65.269 40.086-9.757 8.206-18.867 17.202-28.822 25.149-13.908 11.103-23.232 26.238-35.322 38.932-4.796 5.034-7.553 11.973-11.495 17.873-2.248 3.365-4.956 6.433-7.565 9.543-2.142 2.553-5.156 4.327-4.945 8.535.09 1.795-1.443 4.649-3.002 5.369-5.11 2.36-5.074 7.16-6.649 11.361-2.298 6.132-4.644 12.317-7.74 18.066-4.68 8.689-5.926 18.089-6.985 27.597-.14 1.263.14 2.683.608 3.883 1.149 2.949.106 4.939-1.399 7.671-1.746 3.173-1.697 7.472-1.887 11.308-.102 2.069 1.102 4.169 1.397 6.299.333 2.403.28 4.839-3.482 5.149-.39-16.003-.39-32.024-.035-48.577 2.43-4.689 4.635-8.786 6.554-13.012 5.415-11.92 10.216-24.151 16.22-35.763 4.555-8.81 10.56-16.873 15.964-25.24 4.327-6.698 8.036-13.951 13.225-19.906a927.01 927.01 0 0 1 38.174-41.24c6.717-6.825 14.16-13.225 22.184-18.41 14.528-9.39 29.552-18.065 44.72-26.399 12.051-6.62 24.499-12.566 36.999-18.315 19.901-9.155 41.058-13.045 62.847-13.042 23.79.003 47.581.594 71.371.935.664.01 1.341.023 1.989.15 9.732 1.909 19.384 4.512 29.205 5.616 19.159 2.154 36.148 10.138 52.464 19.318 23.021 12.953 45.314 27.191 64.708 45.411 4.206 3.952 8.13 8.203 12.201 12.3 7.797 7.845 15.614 15.67 23.403 23.523 2.504 2.524 4.946 5.111 7.417 7.669.964.779 1.929 1.557 2.959 3.034a305.557 305.557 0 0 0 11.093 17.398c.558.813 1.944 1.059 2.948 1.568.62 1.121 1.241 2.242 1.943 4.05 3.406 6.579 6.667 12.509 10.124 18.323.494.83 1.932 1.098 2.933 1.627Z"/><path fill="#16143D" d="M601.001 209.531c-1.232-.786-2.925-1.825-3.623-3.328-7.69-16.544-13.968-33.895-23.127-49.568-10.779-18.442-23.699-35.68-36.327-52.976-6.325-8.664-13.649-16.712-21.271-24.284-8.352-8.296-17.645-15.637-26.391-23.545-20.511-18.542-44.44-31.85-68.544-44.879-4.375-2.365-9.141-3.997-13.652-6.127-1.742-.822-3.275-2.085-4.984-3.486C421.355 1 439.709 1 458.591 1.345c1.579 1.328 2.488 2.562 3.704 3.254 23.175 13.184 45.14 28.228 64.223 46.797a425.836 425.836 0 0 1 39.333 44.002c10.22 13.17 18.173 28.094 27.209 42.19 2.5 3.898 5.286 7.613 7.941 11.412v60.531Z"/><path fill="#151437" d="M601 148.531c-2.655-3.33-5.441-7.044-7.94-10.943-9.037-14.096-16.99-29.02-27.21-42.19a425.836 425.836 0 0 0-39.333-44.002c-19.083-18.57-41.048-33.613-64.223-46.797-1.216-.692-2.125-1.926-3.235-3.254C478.687 1 498.375 1 518.586 1.342c1.473 1.439 2.287 2.705 3.398 3.603 3.594 2.905 7.444 5.505 10.926 8.53 8.223 7.145 16.476 14.275 24.362 21.783 5.834 5.555 11.462 11.41 16.556 17.643 8.575 10.493 16.64 21.404 24.981 32.092.44.562 1.447.681 2.191 1.007v62.531Z"/><path fill="#171542" d="m183 579.998-4.73 2.496c2.238 1.386 3.707 2.623 5.4 3.291 10.174 4.015 20.414 7.863 30.594 11.864 1.619.637 3.046 1.762 4.649 3.006-11.267.345-22.621.345-34.502-.004-2.571-1.858-4.434-3.753-6.691-4.81-10.354-4.852-21.287-8.661-31.133-14.363-14.279-8.27-27.775-17.888-41.679-26.817-1.906-1.224-4.235-1.793-6.372-2.657-1.052-.425-2.722-.548-3.067-1.292-1.9-4.1-5.854-5.161-9.252-7.304-3.555-2.243-6.07-6.067-9.299-8.905-6.384-5.615-13.629-10.409-19.285-16.659-9.88-10.916-19.327-22.31-28.009-34.195-7.11-9.732-12.821-20.483-19.192-30.758C7.335 447.898 4.146 442.962 1 438c0-12.688 0-25.375.349-38.47 1.426.966 2.788 2.202 3.537 3.737 6.187 12.682 11.384 25.942 18.591 38.006 8.83 14.78 18.723 29.029 29.264 42.651 8.81 11.385 18.544 22.259 29.09 32.042 12.25 11.364 25.563 21.646 38.909 31.745 14.332 10.844 29.863 19.864 46.251 27.681-.128 1.619-.241 2.864-.399 4.606H183Z"/><path fill="#151437" d="M519.001 601c-16.021 0-32.042 0-48.478-.341 1.109-2.051 2.379-4.115 4.197-5.408 9.322-6.63 19.03-12.741 28.134-19.651 9.627-7.307 19.341-14.689 27.909-23.158 12.261-12.12 23.683-25.108 35.115-38.033 4.575-5.172 8.559-10.953 12.221-16.825 7.018-11.255 13.59-22.787 20.436-34.151.43-.714 1.626-.966 2.466-1.433 0 17.688 0 35.375-.333 53.61-3.473 4.543-6.805 8.406-9.718 12.561-10.172 14.507-21.316 28.222-34.392 40.171-10.088 9.219-20.873 17.674-31.29 26.537-2.219 1.888-4.185 4.073-6.267 6.121Z"/><path fill="#15143A" d="M1 522c0-16.688 0-33.375.345-50.475 2.677 2.897 4.97 6.234 7.348 9.51 6.6 9.095 13.11 18.258 19.902 27.208 4.176 5.502 8.679 10.773 13.263 15.945 5.275 5.953 10.364 12.18 16.31 17.405 11.634 10.222 23.42 20.356 35.877 29.53 9.96 7.336 21.068 13.1 31.545 19.754 4.95 3.143 9.615 6.735 14.41 10.123-17.688 0-35.375 0-53.61-.333-5.101-3.558-9.876-6.516-14.168-10.057-11.862-9.787-23.733-19.581-35.202-29.819-10.977-9.798-20.966-20.575-29.51-32.647C5.82 525.756 3.195 524.031 1 522Zm0-391c0-16.688 0-33.375.341-50.589C2.91 78.594 4.234 77.381 5.347 76c6.035-7.498 11.545-15.485 18.14-22.449 7.855-8.297 16.359-16.04 25.073-23.446 8.573-7.287 17.83-13.765 26.642-20.776C78.35 6.824 81.079 3.792 84 1c18.354 0 36.708 0 55.452.335-.77 1.216-1.856 2.222-3.1 2.96-9.565 5.675-19.4 10.932-28.692 17.022C92.988 30.933 78.728 41 65.802 53.14 51.135 66.915 37.362 81.395 25.06 97.21c-7.307 9.392-13.331 19.779-20.035 29.65-1.064 1.568-2.67 2.769-4.025 4.14Z"/><path fill="#16143E" d="M397.469 601c3.98-2.318 8.447-4.602 12.875-6.96 9.506-5.063 19.053-10.054 28.466-15.285 7.236-4.021 14.634-7.885 21.356-12.669 11.59-8.248 23.236-16.56 33.893-25.942 12.932-11.386 25.555-23.292 37.013-36.132 9.556-10.708 17.733-22.765 25.618-34.814 8.439-12.896 16.178-26.289 23.539-39.836 4.896-9.009 8.595-18.669 12.824-28.04 2.427-5.377 4.844-10.759 7.607-16.23.34 11.596.34 23.283-.013 35.503-.992 1.022-1.898 1.374-2.228 2.021-6.32 12.389-12.437 24.883-18.904 37.194-2.748 5.232-6.047 10.198-9.375 15.095-2.78 4.089-6.096 7.811-8.949 11.855-5.708 8.093-11.129 16.391-16.938 24.41-2.732 3.77-6.823 6.684-9.016 10.689-5.179 9.459-12.519 17.09-20.21 24.201-8.224 7.605-17.79 13.737-26.38 20.976-12.401 10.45-26.201 18.63-40.338 26.382-3.964 2.174-7.55 5.036-11.309 7.582h-39.531Z"/><path fill="#16153F" d="M1 131.469c1.355-1.84 2.96-3.041 4.025-4.609 6.704-9.871 12.728-20.258 20.035-29.65 12.302-15.815 26.075-30.295 40.742-44.07C78.728 41 92.987 30.933 107.66 21.317c9.292-6.09 19.127-11.347 28.692-17.022 1.244-.738 2.33-1.744 3.569-2.96a966.407 966.407 0 0 1 44.549.015c-.502 1.246-1.257 2.48-2.348 2.98-5.723 2.628-11.64 4.846-17.286 7.621-11.589 5.697-23.325 11.179-34.484 17.642-11.667 6.757-22.737 14.546-34.03 21.943-.933.61-1.457 1.832-2.373 2.488-2.875 2.055-5.866 3.946-8.771 5.96-1.675 1.16-3.41 2.29-4.866 3.695-1.966 1.899-3.303 4.856-5.585 5.948C66.68 73.476 61 80.16 55.465 86.458a476.056 476.056 0 0 0-31.334 39.749C17.01 136.3 11.576 147.578 5.294 158.272 4.093 160.316 2.443 162.097 1 164v-32.531Z"/><path fill="#171646" d="M167.005 575.017c-16.402-7.442-31.933-16.462-46.265-27.306-13.346-10.099-26.659-20.382-38.908-31.745-10.547-9.783-20.28-20.657-29.09-32.042-10.542-13.622-20.435-27.871-29.265-42.652-7.207-12.063-12.404-25.323-18.59-38.005-.75-1.535-2.112-2.771-3.538-4.206C1 376.646 1 354.291 1 331.469c4.742-.389 4.052 2.796 3.714 5.893-.461 4.23-2.017 8.844-.879 12.622 1.509 5.004 1.93 9.894 2.738 14.874.975 6.007.887 11.976 1.766 17.834.758 5.05 4.06 9.721 6.25 14.553 2.76 6.089 5.386 12.246 8.362 18.228 1.527 3.068 3.681 5.825 5.575 8.708.433.658 1.37 1.246 1.38 1.878.085 5.253 4.434 7.39 7.173 10.879 5.784 7.369 10.202 15.792 15.65 23.448 4.599 6.463 9.539 12.75 14.899 18.59 9.28 10.111 18.501 20.37 28.67 29.544 11.554 10.423 23.895 20.02 36.3 29.442 17.804 13.525 38.074 22.852 57.958 32.785 2.22 1.109 4.62 1.856 7.062 3.39-5.027.948-10.279 2.05-15.301 1.391-5.155-.677-10.347 2.464-15.312-.511Z"/><path fill="#16153F" d="M140.469 601c-5.264-3.388-9.929-6.98-14.879-10.123-10.477-6.653-21.585-12.418-31.545-19.754-12.457-9.174-24.243-19.307-35.877-29.53-5.946-5.225-11.035-11.452-16.31-17.405-4.584-5.172-9.087-10.443-13.263-15.945-6.792-8.95-13.302-18.113-19.902-27.208-2.377-3.276-4.67-6.613-7.348-9.979C1 460.313 1 449.625 1 438.469c3.147 4.493 6.335 9.429 9.431 14.422 6.372 10.275 12.084 21.026 19.193 30.758 8.682 11.885 18.13 23.28 28.009 34.196 5.656 6.249 12.9 11.043 19.285 16.658 3.228 2.839 5.744 6.662 9.298 8.905 3.399 2.143 7.352 3.204 9.253 7.304.345.744 2.015.867 3.067 1.292 2.137.864 4.466 1.433 6.372 2.657 13.904 8.929 27.4 18.547 41.679 26.817 9.846 5.702 20.779 9.511 31.133 14.363 2.257 1.057 4.12 2.952 6.222 4.81-14.296.349-28.65.349-43.473.349Z"/><path fill="#171542" d="M1 164.469c1.443-2.372 3.093-4.152 4.294-6.197 6.282-10.694 11.716-21.972 18.837-32.065a476.055 476.055 0 0 1 31.334-39.749C61 80.16 66.681 73.476 74.727 69.627c2.282-1.092 3.619-4.049 5.585-5.948 1.455-1.405 3.191-2.534 4.866-3.695 2.905-2.014 5.896-3.904 8.77-5.96.917-.656 1.44-1.877 2.374-2.488 11.293-7.397 22.363-15.186 34.03-21.943 11.159-6.463 22.895-11.945 34.484-17.642 5.646-2.775 11.563-4.993 17.286-7.62 1.091-.501 1.846-1.735 2.817-2.981C196.354 1 207.708 1 219.531 1c-3.503 1.708-7.51 3.338-11.441 5.136-21.589 9.879-43.701 18.793-64.549 30.048-14.487 7.82-27.39 18.658-40.686 28.57-8.197 6.11-16.358 12.461-23.554 19.681C65.25 98.534 51.525 113 40.921 130.068c-7.516 12.096-15.694 23.797-22.835 36.104-5.562 9.584-9.974 19.836-14.93 29.773-.35.7-.983 1.257-1.82 1.968C1 186.979 1 175.958 1 164.469Z"/><path fill="#15153B" d="M437.469 601c3.29-2.546 6.876-5.409 10.84-7.582 14.137-7.752 27.937-15.932 40.338-26.383 8.59-7.238 18.156-13.37 26.38-20.975 7.691-7.111 15.031-14.742 20.21-24.201 2.193-4.005 6.284-6.92 9.016-10.69 5.809-8.018 11.23-16.317 16.938-24.41 2.853-4.044 6.169-7.765 8.949-11.854 3.328-4.897 6.627-9.863 9.375-15.095 6.467-12.311 12.584-24.806 18.904-37.194.33-.647 1.236-.999 2.228-1.553.353 13.291.353 26.645.353 40.468-.84.936-2.036 1.188-2.466 1.902-6.846 11.364-13.418 22.896-20.436 34.151-3.661 5.872-7.646 11.653-12.22 16.825-11.432 12.925-22.855 25.913-35.115 38.033-8.568 8.469-18.282 15.85-27.91 23.158-9.103 6.91-18.811 13.021-28.134 19.651-1.818 1.293-3.088 3.357-4.665 5.407-10.741.342-21.429.342-32.585.342Z"/><path fill="#141431" d="M601 85.531c-.743.143-1.751.024-2.19-.538-8.341-10.688-16.406-21.599-24.982-32.092-5.094-6.233-10.722-12.088-16.556-17.643-7.886-7.508-16.138-14.638-24.361-21.782-3.483-3.027-7.333-5.626-10.926-8.53-1.112-.9-1.925-2.165-2.93-3.604C546.261 1 573.523 1 601 1v84.531ZM519.469 601c1.614-2.048 3.579-4.233 5.798-6.121 10.417-8.863 21.202-17.318 31.291-26.537 13.076-11.949 24.219-25.664 34.391-40.171 2.914-4.155 6.245-8.017 9.718-12.092.333 28.18.333 56.439.333 84.921h-81.531Z"/><path fill="#141433" d="M1 522.469c2.194 1.562 4.82 3.287 6.51 5.675 8.544 12.072 18.534 22.849 29.51 32.647 11.468 10.238 23.34 20.032 35.202 29.819 4.293 3.541 9.067 6.5 13.7 10.057C57.741 601 29.484 601 1 601v-78.531ZM83.531 1c-2.452 2.792-5.18 5.824-8.33 8.33-8.812 7.011-18.068 13.488-26.64 20.774-8.715 7.405-17.22 15.15-25.075 23.446-6.594 6.964-12.104 14.95-18.139 22.449-1.113 1.383-2.437 2.595-4.006 3.944C1 53.738 1 27.476 1 1h82.531Z"/><path fill="#171546" d="M520.988 125.633c-2.458-2.191-4.9-4.778-7.405-7.302-7.788-7.853-15.606-15.678-23.402-23.524-4.071-4.096-7.996-8.347-12.202-12.3-19.394-18.219-41.687-32.457-64.708-45.41-16.316-9.18-33.305-17.164-52.463-19.318-9.821-1.104-19.474-3.707-29.205-5.616-.649-.127-1.325-.14-1.99-.15-23.79-.34-47.58-.932-71.371-.935-21.789-.003-42.945 3.887-62.847 13.041-12.499 5.75-24.947 11.695-36.999 18.316-15.168 8.334-30.191 17.008-44.719 26.398-8.024 5.186-15.467 11.586-22.185 18.411a926.953 926.953 0 0 0-38.173 41.24c-5.19 5.955-8.898 13.208-13.225 19.906-5.405 8.367-11.41 16.43-15.965 25.24-6.004 11.612-10.804 23.842-16.22 35.763-1.919 4.226-4.123 8.323-6.553 12.543C1 220.611 1 219.222 1 217.417c2.272-5.053 4.524-9.698 6.82-14.322 6.764-13.627 12.96-27.58 20.49-40.77 7.048-12.346 15.065-24.213 23.506-35.664 6.262-8.494 13.712-16.147 20.953-23.874 6.776-7.231 13.443-14.721 21.1-20.935 14.148-11.479 28.797-22.37 43.589-33.017 14.723-10.599 31.034-18.418 47.713-25.458 7.189-3.035 14.19-6.619 21.568-9.075 6.276-2.089 12.969-2.927 19.484-4.285.64-.134 1.377.126 1.989-.06 12.199-3.707 24.708-.3 37.102-1.655 12.515-1.368 25.324-.824 37.955-.161 15.054.79 30.223 1.631 45.035 4.213 18.085 3.152 36.401 6.523 52.834 15.38 12.689 6.838 25.022 14.372 37.266 21.994 9.128 5.682 18.18 11.586 26.676 18.155 7.699 5.952 14.612 12.923 21.844 19.475 2.831 2.564 5.766 5.047 8.347 7.848 8.314 9.026 16.503 18.167 24.676 27.321.606.679.698 1.816 1.041 3.106Z"/><path fill="#18164A" d="M218.003 575.977c-1.02-.992-1.866-2.414-3.087-2.908-9.043-3.656-18.44-6.551-27.186-10.797-11.936-5.796-23.706-12.074-34.968-19.076-11.396-7.086-22.373-14.936-32.998-23.144-8.786-6.787-16.928-14.434-25.114-21.963-16.429-15.111-30.046-32.684-42.652-50.952-6.946-10.068-12.395-21.178-18.401-31.883-4.224-7.527-9.228-14.816-12.093-22.849-2.961-8.304-3.917-17.352-5.462-26.126-1.74-9.881-3.168-19.818-4.71-29.734-.481-3.098-1.21-6.202-1.271-9.315-.174-8.828.362-17.686-.15-26.488-1.056-18.199.1-36.451 3.613-54.056 3.06-15.339 3.054-31.662 11.473-45.857 12.697-21.408 24.104-43.608 39.375-63.406 15.275-19.802 33.099-36.98 52.264-53.085 25.89-21.755 54.96-37.86 85.353-52.003 11.693-5.44 24.03-8.595 36.84-9.265 18.91-.99 37.863-2.161 56.773-1.83 14.995.262 29.972 2.49 44.917 4.196 6.382.729 12.82 1.829 18.951 3.688 9.103 2.76 18.26 5.7 26.84 9.741 11.1 5.228 21.911 11.197 32.37 17.623 10.174 6.251 19.922 13.244 29.53 20.353 8.355 6.182 16.567 12.634 24.261 19.608 7.097 6.432 13.739 13.442 20.009 20.693 9.223 10.664 18.555 21.33 26.701 32.804 9.026 12.714 16.974 26.216 24.985 39.617 3.995 6.683 7.222 13.841 10.547 20.901 4.95 10.509 5.644 22.01 7.251 33.267 1.696 11.878 3.122 23.794 4.639 35.697.21 1.643.375 3.306.38 4.96.033 10.998.285 22.004-.064 32.991-.304 9.587-.863 19.211-2.123 28.71-1.189 8.967-4.094 17.721-5.083 26.696-1.889 17.152-10.725 31.262-19.053 45.523a542.436 542.436 0 0 1-25.025 38.941c-5.81 8.241-12.6 15.903-19.672 23.117-13.136 13.398-26.235 26.935-40.428 39.161-10.649 9.173-22.683 16.873-34.662 24.327-11.257 7.004-23.053 13.23-34.998 19-6.133 2.963-13.119 4.151-19.695 6.219-1.381.434-2.69 1.145-3.963 1.851-.702.389-1.25 1.479-1.887 1.495-10.289.263-19.816 4.341-29.895 5.92-14.654 2.294-29.292.366-43.79 1.85-16.866 1.725-33.503.183-50.19-1.313-4.598-.413-9.102-1.866-14.452-2.863-1.869-.026-2.935-.031-4-.036Zm206.496-42.976c5.364-3.918 10.534-8.14 16.129-11.694 13.969-8.874 25.558-20.494 37.325-31.889 4.511-4.368 8.318-9.464 12.421-14.25 8.385-9.78 17.727-18.916 24.898-29.519 10.662-15.765 19.901-32.502 29.483-48.979 2.561-4.404 4.846-9.199 6.046-14.11 1.744-7.143 2.346-14.561 3.513-21.85 1.512-9.445 4.491-18.893 4.382-28.312-.27-23.527 2.504-47.131-1.601-70.611-1.645-9.409-1.85-19.061-3.2-28.532-.805-5.646-1.873-11.444-4.05-16.661-3.314-7.938-7.413-15.591-11.684-23.077-6.166-10.806-12.453-21.574-19.318-31.942-5.111-7.719-11.079-14.892-16.923-22.1-6.155-7.59-11.995-15.594-19.077-22.239-13.055-12.25-26.406-24.306-40.592-35.194-13.523-10.38-27.862-19.87-42.617-28.41-10.067-5.828-21.298-9.293-32.819-12.468-22.88-6.307-45.983-8.468-69.37-9.029-15.78-.378-31.603.247-47.382.964-9.898.45-19.796 1.601-29.599 3.068-3.441.514-6.514 3.14-9.904 4.397-8.731 3.238-17.734 5.815-26.259 9.51-5.361 2.323-10.443 5.48-15.642 8.157-12.885 6.633-25.277 14.659-36.672 23.64-13.75 10.837-26.768 22.736-39.162 35.117a275.942 275.942 0 0 0-27.789 32.422c-8.972 12.293-16.879 25.436-24.42 38.681-7.896 13.871-16.954 27.318-18.267 44.107-1.42 18.163-4.188 36.236-5.19 54.413-1.385 25.094.697 50.132 3.961 75.028 1.093 8.338 1.59 17.233 4.969 24.692 6.76 14.925 14.684 29.429 23.329 43.361 7.772 12.525 16.42 24.679 26.012 35.855 11.302 13.169 23.608 25.567 36.289 37.434 9.769 9.143 20.469 17.393 31.356 25.204 8.472 6.078 17.422 11.972 27.007 15.856 6.774 2.744 11.921 9.421 20.162 8.706.802-.07 1.651 1.069 2.56 1.453 9.284 3.922 18.268 9.392 27.956 11.333 15.307 3.066 30.954 5.131 46.758 4.505 20.09-.794 40.314-.216 60.246-2.382 17.692-1.923 35.45-5.523 52.465-10.721 15.819-4.833 30.047-13.937 44.27-23.934Z"/><path fill="#141431" d="M166.989 575.392c4.979 2.6 10.171-.541 15.327.136 5.021.66 10.274-.443 15.555-1.146.57-.375 1.01-.376 1.851-.071 1.026.766 1.651 1.228 2.276 1.689.324 2.953-.938 4.131-3.948 4.026-4.71-.163-9.431-.032-14.599-.027H166.59c.158-1.743.272-2.987.399-4.607Zm50.548.589c1.531.001 2.596.005 4.061.014.859 1.202 1.319 2.4 1.591 3.804-1.631-.027-3.074-.262-4.952-.778-.765-.461-1.026-.374-1.219-.02-2.741.334-5.482.668-8.62 1.007-2.682.102-4.616-.232-4.397-3.621 4.355-.394 8.713-.398 13.536-.406Z"/><path fill="#171646" d="M202.333 576c-.958-.461-1.583-.923-2.278-1.688 1.203.13 2.475.564 3.844 1.338-.348.343-.791.346-1.566.35Z"/><path fill="#171546" d="M572.947 209.641c-4.132-6.05-8.439-12.384-12.433-18.911-1.26-2.059-1.68-4.631-2.498-7.349 3.079 4.159 6.451 8.54 9.18 13.289 2.288 3.981 3.826 8.391 5.751 12.971Zm-20.002-37.998c-.947-.172-2.385-.44-2.878-1.27-3.457-5.814-6.719-11.744-10.055-18.005 2.647 2.635 5.648 5.408 7.868 8.707 2.097 3.117 3.373 6.785 5.065 10.568Zm-15.002-23.99c-.947-.162-2.333-.408-2.891-1.221-3.774-5.5-7.373-11.119-11.04-17.066 2.694 2.521 5.649 5.219 8.035 8.35 2.257 2.96 3.917 6.375 5.896 9.937Zm16.994 27.041c-.559-.157-1.182-.62-1.871-1.388.559.157 1.183.62 1.871 1.388Z"/><path fill="#171545" d="M217.264 579.001c-.052-.354.209-.441.638-.131.1.13-.392.13-.638.131Z"/><path fill="#18164C" d="M424.209 533.216c-13.934 9.782-28.162 18.886-43.981 23.719-17.014 5.198-34.773 8.798-52.465 10.721-19.932 2.166-40.156 1.588-60.245 2.382-15.805.626-31.452-1.439-46.759-4.505-9.688-1.941-18.671-7.411-27.956-11.333-.909-.384-1.757-1.523-2.56-1.453-8.24.715-13.387-5.962-20.162-8.706-9.585-3.884-18.534-9.778-27.007-15.856-10.886-7.811-21.587-16.061-31.356-25.204-12.68-11.867-24.987-24.265-36.29-37.434-9.591-11.176-18.24-23.33-26.01-35.855-8.646-13.932-16.57-28.436-23.33-43.361-3.379-7.459-3.875-16.354-4.969-24.692-3.264-24.896-5.346-49.934-3.962-75.028 1.003-18.177 3.771-36.25 5.191-54.413 1.313-16.789 10.371-30.236 18.268-44.107 7.54-13.245 15.448-26.388 24.42-38.681a275.943 275.943 0 0 1 27.788-32.422c12.394-12.381 25.412-24.28 39.162-35.117 11.396-8.981 23.787-17.007 36.672-23.64 5.199-2.677 10.281-5.834 15.643-8.157 8.524-3.695 17.527-6.272 26.258-9.51 3.391-1.257 6.464-3.883 9.904-4.398 9.803-1.466 19.701-2.617 29.599-3.067 15.779-.717 31.602-1.342 47.382-.964 23.387.562 46.49 2.722 69.371 9.029 11.521 3.175 22.752 6.64 32.818 12.467 14.756 8.542 29.094 18.031 42.617 28.41 14.186 10.889 27.537 22.945 40.592 35.195 7.082 6.645 12.923 14.649 19.077 22.239 5.844 7.208 11.812 14.381 16.924 22.1 6.864 10.368 13.151 21.136 19.317 31.942 4.271 7.486 8.371 15.138 11.684 23.077 2.177 5.217 3.245 11.015 4.05 16.661 1.35 9.471 1.555 19.123 3.2 28.532 4.106 23.48 1.331 47.084 1.602 70.611.108 9.419-2.871 18.867-4.383 28.312-1.167 7.289-1.769 14.707-3.513 21.85-1.199 4.911-3.485 9.706-6.046 14.11-9.582 16.477-18.821 33.214-29.483 48.979-7.171 10.603-16.513 19.739-24.898 29.519-4.103 4.786-7.91 9.882-12.421 14.25-11.767 11.395-23.356 23.015-37.325 31.889-5.594 3.554-10.765 7.776-16.418 11.909Zm124.06-293.969c-2.432-6.007-.895-12.617-3.534-18.938-1.404-3.362-1.727-7.648-3.944-11.097-1.339-2.083-2.717-4.146-3.948-6.293-7.832-13.662-14.873-27.856-23.667-40.866-7.49-11.081-16.729-21.033-25.662-31.068-8.807-9.893-17.759-19.737-27.436-28.756-15.592-14.53-32.921-26.93-51.222-37.836-9.249-5.513-18.56-11.801-28.711-14.72-16.442-4.727-33.05-9.95-50.556-9.717-.655.008-1.352-.078-1.964-.3-10.211-3.723-20.91-3.36-31.497-3.601-10.827-.247-21.686-.485-32.487.085-8.194.433-16.318 2.156-24.478 3.27-1.966.268-3.993.207-5.921.624-6.753 1.463-13.838 2.197-20.129 4.813-10.832 4.504-21.342 9.882-31.655 15.504-12.074 6.582-24.491 12.873-35.493 21.003-14.517 10.728-27.956 22.949-41.544 34.884-5.459 4.795-10.143 10.484-15.071 15.865-3.548 3.874-7.08 7.782-10.331 11.903-6.957 8.82-13.835 17.708-20.534 26.724-4.183 5.63-8.017 11.522-11.905 17.363-.505.759-.18 2.039-.618 2.88-2.908 5.576-5.795 11.17-8.93 16.62-3.605 6.267-9.475 11.803-5.461 20.184.452.944.063 3.345-.497 3.552-4.539 1.674-2.523 4.836-2.376 7.877.16 3.286 2.253 7.388-2.757 9.492-.741.31-.717 2.68-.867 4.116-.406 3.875-.564 7.781-1.095 11.637-.88 6.381-2.553 12.705-2.849 19.102-.483 10.476-.545 21.012.009 31.482.399 7.551 2.182 15.021 3.16 22.552.481 3.698.487 7.456.81 11.177.139 1.593.072 4.2.9 4.574 4.99 2.255 2.774 6.156 2.47 9.495-.239 2.636-1.46 5.183 2.22 6.653.702.28 1.052 2.99.631 4.273-2.057 6.276 1.632 16.106 5.995 21.143 4.037 4.659 6.326 10.848 9.285 16.416 1.089 2.047 1.807 4.29 2.862 6.357.585 1.147 1.599 2.066 2.278 3.174 2.654 4.326 4.898 8.955 7.948 12.976 5.655 7.455 12.855 13.945 17.412 21.972 5.518 9.717 14.588 15.714 21.516 23.873 6.829 8.043 15.222 14.836 23.354 21.673 9 7.568 18.114 15.108 27.854 21.658 10.45 7.026 21.59 13.054 32.599 19.214 15.65 8.758 31.247 17.602 49.708 19.426 9.516.94 18.936 4.091 28.398 4.086 17.231-.007 34.515 1.908 51.761-1.503 11.505-2.275 23.419-2.414 35.007-4.361 13.545-2.277 27.27-4.461 39.641-10.925 10.138-5.297 20.105-10.961 29.888-16.892 19.687-11.936 37.643-26.232 53.865-42.49 10.168-10.19 18.935-21.762 28.726-32.349 12.065-13.044 21.203-28.059 30.001-43.299 3.21-5.56 4.142-12.883 8.321-17.327 5.636-5.994 6.972-13.357 8.736-20.223 2.047-7.97 1.135-16.688 1.665-25.071.108-1.696.97-3.335 1.392-5.023.808-3.228 2.677-6.69 2.102-9.668-1.608-8.331-2.553-16.271 2.749-23.697.442-.619.542-1.588.549-2.396.049-6.499.067-12.998.011-19.496-.009-.949-.187-2.123-.752-2.807-5.503-6.655-3.796-14.098-2.806-21.616.414-3.14.768-7.31-.877-9.462-2.506-3.277-2.641-6.038-1.965-9.639.447-2.381.011-4.927-.284-8.236Z"/><path fill="#18164D" d="M548.397 239.665c.168 2.891.604 5.437.157 7.818-.676 3.601-.541 6.362 1.965 9.639 1.645 2.152 1.291 6.322.877 9.462-.99 7.518-2.697 14.961 2.806 21.616.565.685.743 1.858.752 2.807.056 6.498.038 12.997-.011 19.496-.007.808-.107 1.777-.549 2.396-5.302 7.426-4.357 15.366-2.749 23.698.575 2.977-1.294 6.439-2.102 9.667-.422 1.688-1.284 3.327-1.392 5.024-.53 8.383.382 17.1-1.665 25.07-1.764 6.866-3.1 14.229-8.736 20.224-4.179 4.443-5.111 11.766-8.321 17.326-8.798 15.24-17.936 30.255-30.001 43.299-9.791 10.587-18.558 22.159-28.726 32.349-16.222 16.258-34.178 30.554-53.865 42.49-9.783 5.931-19.75 11.595-29.888 16.892-12.371 6.464-26.096 8.648-39.641 10.925-11.588 1.947-23.502 2.086-35.007 4.361-17.246 3.411-34.53 1.496-51.761 1.503-9.462.005-18.882-3.146-28.398-4.086-18.461-1.824-34.058-10.668-49.708-19.426-11.009-6.16-22.149-12.188-32.599-19.214-9.739-6.549-18.854-14.09-27.854-21.658-8.132-6.836-16.525-13.63-23.354-21.673-6.927-8.159-15.998-14.156-21.516-23.873-4.557-8.027-11.757-14.517-17.412-21.972-3.05-4.021-5.294-8.65-7.948-12.976-.68-1.108-1.692-2.027-2.277-3.174-1.056-2.067-1.774-4.31-2.863-6.357-2.96-5.568-5.248-11.757-9.284-16.416-4.364-5.037-8.053-14.866-5.996-21.143.42-1.283.07-3.993-.631-4.273-3.68-1.47-2.459-4.017-2.22-6.653.304-3.338 2.52-7.24-2.47-9.495-.827-.374-.761-2.981-.9-4.574-.323-3.721-.329-7.479-.81-11.177-.978-7.531-2.761-15.001-3.16-22.552-.554-10.47-.492-21.006-.009-31.482.296-6.397 1.97-12.721 2.849-19.102.531-3.856.689-7.762 1.095-11.637.15-1.436.126-3.805.867-4.116 5.01-2.104 2.917-6.206 2.757-9.492-.147-3.04-2.163-6.203 2.376-7.877.56-.207.949-2.608.497-3.552-4.014-8.381 1.856-13.917 5.461-20.184 3.135-5.45 6.022-11.044 8.93-16.62.439-.841.113-2.121.618-2.879 3.888-5.842 7.722-11.734 11.905-17.364 6.699-9.016 13.577-17.904 20.534-26.724 3.25-4.121 6.783-8.029 10.33-11.903 4.929-5.381 9.613-11.07 15.072-15.865 13.588-11.935 27.027-24.156 41.544-34.884 11.002-8.13 23.419-14.42 35.493-21.003 10.313-5.622 20.823-11 31.655-15.504 6.291-2.616 13.376-3.35 20.129-4.813 1.928-.417 3.955-.356 5.921-.624 8.16-1.114 16.284-2.837 24.478-3.27 10.801-.57 21.66-.332 32.487-.085 10.587.241 21.286-.122 31.497 3.6.612.223 1.309.31 1.964.3 17.506-.232 34.114 4.991 50.556 9.718 10.151 2.919 19.462 9.207 28.711 14.72 18.301 10.906 35.63 23.305 51.222 37.836 9.677 9.019 18.629 18.863 27.436 28.756 8.933 10.035 18.172 19.987 25.662 31.068 8.794 13.01 15.835 27.204 23.667 40.866 1.231 2.147 2.609 4.21 3.948 6.293 2.217 3.449 2.541 7.735 3.944 11.097 2.639 6.321 1.102 12.931 3.661 19.356ZM431.312 90.18c-6.473-4.926-12.849-9.987-19.452-14.731-4.765-3.425-9.692-6.678-14.799-9.56-7.305-4.122-14.458-9.18-22.362-11.427-13.623-3.873-27.687-6.494-41.727-8.517-14.088-2.03-28.372-3.683-42.572-3.695-18.06-.015-36.155 1.416-54.168 2.987-7.336.64-14.905 2.333-21.65 5.223-12.339 5.287-24.634 11.02-36.053 18.024-16.238 9.961-32.242 20.502-47.256 32.194-11.327 8.82-20.908 19.873-31.334 29.862-16.334 15.651-28.938 34.24-40.85 53.205-6.847 10.902-12.329 22.754-17.472 34.593-2.512 5.783-3.145 12.469-4.103 18.825-2.02 13.396-5.077 26.832-5.199 40.274-.2 22.014-2.458 44.174 2.522 66.095 2.37 10.44 3.703 21.153 4.92 31.809 1.487 12.999 8.075 24.108 14.4 34.674 11.912 19.898 24.761 39.246 41.131 56.201 16.095 16.669 32.442 32.875 51.079 46.653 4.524 3.344 9.378 6.276 14.24 9.124 14.465 8.472 28.759 17.285 43.587 25.077 18.243 9.588 38.403 11.235 58.576 11.865 11.488.359 23.012.437 34.492-.037 12.083-.499 24.163-1.528 36.185-2.86 7.729-.856 15.372-2.572 23.016-4.091 12.102-2.404 24.175-5.325 34.696-11.939 10.04-6.312 19.388-13.717 29.115-20.536 21.993-15.42 42.541-32.508 59.819-53.172 11.168-13.357 22.736-26.545 32.37-40.98 13.43-20.124 25.82-41.042 28.055-66.157 1.156-12.995 4.071-25.919 4.231-38.9.261-21.046-1.087-42.112-1.779-63.169-.032-.989-.244-1.977-.436-2.953-1.495-7.609-2.792-15.266-4.573-22.808-1.543-6.532-2.922-13.252-5.627-19.33-7.587-17.05-17.173-32.99-28.752-47.684-7.603-9.648-14.606-19.841-22.875-28.877-14.945-16.33-31.175-31.387-49.395-45.262Z"/><path fill="#181650" d="M431.611 90.377c17.922 13.678 34.152 28.735 49.096 45.065 8.269 9.036 15.272 19.229 22.875 28.877 11.579 14.694 21.165 30.634 28.753 47.684 2.705 6.079 4.084 12.798 5.626 19.33 1.781 7.542 3.079 15.199 4.573 22.808.192.976.404 1.965.437 2.953.691 21.057 2.039 42.123 1.779 63.169-.161 12.981-3.076 25.905-4.232 38.9-2.234 25.115-14.624 46.033-28.055 66.157-9.634 14.435-21.201 27.623-32.37 40.98-17.278 20.664-37.825 37.752-59.819 53.172-9.726 6.819-19.074 14.224-29.114 20.536-10.521 6.614-22.595 9.535-34.697 11.939-7.644 1.519-15.286 3.235-23.015 4.092-12.022 1.332-24.103 2.36-36.186 2.859-11.48.474-23.004.396-34.492.037-20.172-.63-40.333-2.277-58.576-11.865-14.827-7.792-29.122-16.605-43.587-25.077-4.862-2.848-9.715-5.78-14.239-9.124-18.637-13.778-34.985-29.984-51.08-46.653-16.37-16.955-29.219-36.303-41.13-56.201-6.325-10.566-12.914-21.675-14.4-34.674-1.218-10.656-2.55-21.369-4.921-31.809-4.98-21.921-2.721-44.081-2.521-66.095.122-13.442 3.178-26.878 5.198-40.274.959-6.356 1.591-13.042 4.104-18.825 5.143-11.839 10.625-23.691 17.472-34.593 11.912-18.965 24.515-37.554 40.85-53.205 10.425-9.989 20.006-21.042 31.333-29.862 15.015-11.692 31.018-22.233 47.256-32.194 11.419-7.004 23.715-12.737 36.053-18.024 6.745-2.89 14.314-4.583 21.65-5.223 18.014-1.57 36.108-3.002 54.169-2.987 14.199.012 28.484 1.665 42.571 3.695 14.041 2.023 28.105 4.644 41.728 8.517 7.903 2.248 15.056 7.305 22.361 11.427 5.107 2.882 10.034 6.135 14.8 9.56 6.602 4.745 12.978 9.806 19.75 14.928ZM85.56 442.888c6.221 6.651 12.376 13.366 18.68 19.939 8.819 9.195 17.364 18.705 26.757 27.279 7.041 6.427 15.276 11.536 22.906 17.33 18.973 14.407 39.596 25.97 61.525 35.132 4.908 2.05 10.519 2.577 15.873 3.334 2.879.407 5.928-.516 8.85-.264 7.008.606 13.979 2.165 20.978 2.249 21.895.261 43.767.529 65.586-2.725 23.379-3.486 46.647-6.976 67.394-19.286 8.277-4.912 16.427-10.114 24.197-15.784 9.374-6.842 18.778-13.787 27.273-21.655a564.883 564.883 0 0 0 34.351-34.675c7.316-8.059 13.381-17.263 19.902-26.031 3.358-4.516 6.853-8.99 9.648-13.85 5.771-10.035 12.212-19.896 16.312-30.618 3.786-9.902 5.537-20.746 6.978-31.338 1.741-12.797 2.974-25.762 3.043-38.662.091-17.092-.932-34.205-1.923-51.282-.516-8.884-1.784-17.744-3.117-26.554-.741-4.896-1.58-10.011-3.657-14.424-4.922-10.462-10.334-20.722-16.09-30.752-3.443-5.999-7.674-11.593-11.958-17.05-10.134-12.909-19.969-26.119-30.961-38.269-8.889-9.826-18.71-19.03-29.161-27.17-14.895-11.602-30.521-22.318-46.276-32.747-8.74-5.785-18.998-8.286-29.102-11.296-19.095-5.69-38.704-7.586-58.248-9.427-15.197-1.432-30.64-.48-45.967-.197-7.197.133-14.382 1.13-21.562 1.835-6.023.591-12.361.343-17.97 2.224-8.74 2.932-17.165 6.992-25.396 11.213-20.446 10.484-39.918 22.518-57.215 37.807-4.324 3.823-8.894 7.386-13.027 11.403-9.266 9.005-18.812 17.794-27.332 27.474-7.96 9.045-14.902 19.01-21.985 28.792-4.76 6.574-9.386 13.308-13.36 20.372-7.228 12.851-13.785 25.642-15.279 41.134-1.455 15.098-4.286 30.073-4.238 45.346.053 17.165.004 34.331.024 51.496.002 1.659.053 3.335.29 4.973 1.534 10.591 2.852 21.224 4.8 31.74 1.225 6.612 2.516 13.483 5.396 19.457 4.522 9.381 10.248 18.204 15.768 27.075 5.438 8.74 11.253 17.245 17.293 26.452Z"/><path fill="#191653" d="M85.365 442.588c-5.844-8.907-11.66-17.412-17.098-26.152-5.52-8.871-11.245-17.694-15.768-27.075-2.88-5.974-4.17-12.845-5.396-19.457-1.948-10.516-3.266-21.149-4.8-31.74-.237-1.638-.287-3.314-.29-4.973-.02-17.165.03-34.331-.024-51.496-.048-15.273 2.783-30.248 4.238-45.346 1.494-15.492 8.051-28.283 15.28-41.134 3.974-7.064 8.6-13.798 13.36-20.372 7.082-9.782 14.025-19.747 21.985-28.792 8.519-9.68 18.065-18.469 27.331-27.474 4.133-4.017 8.703-7.58 13.028-11.403 17.297-15.29 36.768-27.323 57.214-37.807 8.231-4.22 16.656-8.281 25.397-11.213 5.608-1.881 11.947-1.633 17.969-2.224 7.181-.705 14.365-1.702 21.562-1.835 15.327-.282 30.771-1.235 45.968.197 19.544 1.841 39.153 3.738 58.248 9.427 10.103 3.01 20.361 5.511 29.101 11.296 15.755 10.43 31.381 21.145 46.277 32.747 10.45 8.14 20.271 17.344 29.161 27.17 10.992 12.15 20.826 25.36 30.96 38.269 4.284 5.457 8.516 11.051 11.958 17.05 5.756 10.03 11.168 20.29 16.091 30.752 2.076 4.413 2.916 9.528 3.656 14.424 1.333 8.81 2.601 17.67 3.117 26.554.992 17.077 2.014 34.19 1.923 51.282-.069 12.9-1.302 25.865-3.043 38.662-1.44 10.592-3.192 21.436-6.978 31.338-4.1 10.722-10.541 20.583-16.312 30.618-2.795 4.86-6.29 9.334-9.648 13.85-6.521 8.768-12.585 17.972-19.901 26.031a565.184 565.184 0 0 1-34.352 34.675c-8.494 7.868-17.899 14.813-27.273 21.655-7.77 5.67-15.92 10.872-24.197 15.784-20.747 12.31-44.015 15.8-67.393 19.286-21.82 3.254-43.692 2.986-65.587 2.725-6.999-.084-13.97-1.643-20.977-2.249-2.923-.252-5.972.671-8.85.264-5.355-.757-10.966-1.284-15.874-3.334-21.928-9.162-42.552-20.725-61.525-35.132-7.629-5.794-15.865-10.903-22.906-17.33-9.393-8.574-17.938-18.084-26.756-27.279-6.304-6.573-12.46-13.288-18.876-20.239Zm393.666-279.085c-2.981-5.305-6.177-10.412-11.603-13.663-.653-.392-1.092-1.258-1.461-1.99-6.782-13.451-18.745-22.231-29.227-32.322-4.04-3.888-8.343-7.56-12.85-10.894-7.072-5.231-14.403-10.114-21.651-15.106-13.115-9.033-27.192-15.83-43.035-18.573-7.992-1.383-15.921-3.169-23.943-4.327-12.1-1.747-24.234-4.157-36.392-4.403-23.36-.471-46.706-1.008-69.934 4.287-9.627 2.195-18.567 5.42-26.755 10.055-14.706 8.325-28.965 17.57-42.738 27.376-11.984 8.531-23.898 17.504-34.291 27.842-13.495 13.423-25.527 28.329-38.027 42.737-3.244 3.738-6.052 7.89-8.762 12.045-2.974 4.559-5.885 9.2-8.318 14.058-3.772 7.532-7.448 15.147-10.52 22.98-1.913 4.877-2.61 10.227-3.937 15.343-.145.562-.795 1.054-1.31 1.449-2.793 2.138-2.542 4.684-1.323 7.587 1.632 3.889 1.725 7.537-1.215 11.198-1.09 1.357-.907 3.96-.847 5.981.255 8.624 2.568 17.735.48 25.714-1.852 7.086-2.029 12.425.135 19.42 2.069 6.687.95 14.575.225 21.834-.476 4.771-2.348 9.271 1.798 13.335.56.549.63 1.982.412 2.881-1.316 5.414-3.24 10.845 1.936 15.444.18.16.027.654.112.971 1.688 6.285 2.622 12.913 5.27 18.765 3.664 8.092 8.56 15.633 13.043 23.344 3.41 5.863 6.661 11.862 10.598 17.36 4.037 5.638 8.708 10.841 13.304 16.056 9.332 10.59 18.197 21.69 28.357 31.43 14.718 14.109 30.88 26.66 48.267 37.369 12.42 7.65 25.146 14.947 38.299 21.222 14.936 7.126 31.461 7.874 47.69 8.563 14.471.614 28.995.392 43.482.032 8.937-.222 17.984-.671 26.742-2.305 13.834-2.582 27.413-6.503 41.202-9.366 10.567-2.194 19.425-7.91 28.138-13.485 10.866-6.952 21.422-14.661 30.999-23.28 9.009-8.108 19.957-14.612 25.334-26.31.19-.414.745-.646 1.078-1.011 6.341-6.939 13.806-12.814 18.792-21.052 2.612-4.317 6.441-7.879 9.472-11.966 2.623-3.535 4.842-7.367 7.35-10.992 1.126-1.627 2.727-2.941 3.758-4.615 3.459-5.612 6.742-11.333 10.123-16.993 3.917-6.555 7.223-13.222 8.541-20.973 1.461-8.596 5.236-16.907 5.914-25.508 1.463-18.527 1.783-37.155 2.209-55.75.547-23.922-1.018-47.642-8.229-70.688-.834-2.668-.888-5.682-2.144-8.098-6.855-13.181-14.312-25.996-23.821-37.524-1.646-1.995-2.955-4.606-3.464-7.126-.823-4.068-2.934-6.557-7.263-8.358Z"/><path fill="#1A1756" d="M479.306 163.749c4.054 1.554 6.165 4.044 6.988 8.112.509 2.52 1.818 5.13 3.464 7.126 9.509 11.528 16.966 24.343 23.821 37.524 1.256 2.416 1.31 5.43 2.144 8.097 7.211 23.047 8.776 46.767 8.229 70.689-.425 18.595-.746 37.223-2.208 55.75-.679 8.6-4.453 16.911-5.915 25.508-1.318 7.75-4.624 14.417-8.541 20.973-3.381 5.66-6.664 11.38-10.123 16.993-1.031 1.674-2.632 2.988-3.758 4.615-2.508 3.625-4.727 7.457-7.35 10.992-3.031 4.087-6.859 7.649-9.472 11.966-4.986 8.238-12.451 14.113-18.792 21.052-.333.365-.888.597-1.078 1.011-5.377 11.698-16.324 18.201-25.334 26.31-9.577 8.619-20.133 16.327-30.999 23.28-8.713 5.575-17.571 11.29-28.138 13.485-13.789 2.863-27.368 6.784-41.202 9.366-8.758 1.634-17.805 2.083-26.742 2.305-14.487.36-29.011.582-43.482-.032-16.229-.689-32.754-1.437-47.69-8.563-13.152-6.275-25.879-13.573-38.299-21.222-17.387-10.709-33.549-23.26-48.267-37.37-10.16-9.739-19.025-20.839-28.357-31.429-4.596-5.215-9.267-10.418-13.304-16.056-3.937-5.498-7.189-11.497-10.597-17.36-4.484-7.711-9.38-15.252-13.043-23.344-2.65-5.852-3.583-12.48-5.271-18.765-.085-.317.069-.811-.112-.971-5.177-4.599-3.252-10.03-1.936-15.445.218-.898.148-2.331-.412-2.88-4.146-4.064-2.274-8.564-1.798-13.335.724-7.259 1.844-15.147-.225-21.834-2.164-6.995-1.987-12.334-.134-19.42 2.087-7.979-.226-17.091-.48-25.714-.06-2.021-.245-4.624.846-5.982 2.94-3.66 2.847-7.308 1.215-11.197-1.219-2.903-1.47-5.449 1.323-7.587.515-.395 1.165-.888 1.31-1.45 1.328-5.115 2.024-10.465 3.937-15.342 3.072-7.833 6.748-15.449 10.52-22.98 2.433-4.858 5.344-9.5 8.318-14.058 2.71-4.155 5.519-8.307 8.762-12.045 12.5-14.408 24.532-29.314 38.027-42.738 10.394-10.337 22.307-19.31 34.291-27.842 13.773-9.805 28.032-19.05 42.739-27.375 8.188-4.635 17.127-7.86 26.754-10.055 23.228-5.295 46.574-4.758 69.935-4.287 12.157.245 24.291 2.656 36.391 4.403 8.022 1.158 15.951 2.943 23.943 4.327 15.843 2.743 29.92 9.54 43.035 18.573 7.248 4.992 14.579 9.874 21.651 15.106 4.507 3.334 8.81 7.005 12.85 10.894 10.482 10.091 22.446 18.871 29.227 32.322.369.732.808 1.598 1.461 1.99 5.426 3.251 8.622 8.358 11.878 13.909ZM129.889 465.31l-3.335-4.395-1.561 1.58c1.669 1.168 3.339 2.337 5.115 4.185 4.011 6.235 10.207 11.534 13.975 11.395-3.409-5.902-8.407-9.365-14.194-12.765Zm341.526-293.639c-5.371-6.291-10.188-13.183-16.222-18.756-16.204-14.966-31.199-31.312-49.909-43.481-12.214-7.945-23.487-17.481-38.486-20.015-2.781-.47-5.62-.898-8.265-1.822-17.688-6.183-36.118-8.388-54.617-9.429-14.612-.822-29.309-.259-43.967-.126-7.482.069-14.978.314-22.433.911-5.682.455-11.855.39-16.848 2.665-11.221 5.114-22.282 10.868-32.605 17.594-14.13 9.207-27.682 19.336-41.135 29.528-5.222 3.957-9.555 9.108-14.189 13.817-5.927 6.023-12.116 11.842-17.53 18.304-8.197 9.783-15.817 20.051-23.694 30.103-7.398 9.443-14.335 19.138-17.058 31.139-.803 3.542-1.458 7.122-2.372 10.635-1.6 6.157-4.126 12.185-4.863 18.432-1.297 10.98-1.822 22.076-2.143 33.139a609.659 609.659 0 0 0 .002 35.477c.303 10.397 1.278 20.775 1.996 31.158.055.81.431 1.595.644 2.395 1.76 6.622 3.246 13.331 5.343 19.844 2.575 7.996 4.49 16.543 8.79 23.566 6.902 11.274 15.185 21.767 23.497 32.097 15.163 18.844 31.171 36.725 50.849 51.369 15.759 11.727 31.607 23.144 48.777 32.619 6.482 3.577 13.331 7.481 20.448 8.699 12.684 2.173 25.699 2.417 38.742 4.125l3.733 3.313c-3.862 3.121-7.827 2.003-11.677 1.587-7.705-.833-15.42-1.595-23.103-2.6-5.045-.66-10.806-.401-14.899-2.828-8.765-5.195-18.797-7.831-26.817-14.67-6.245-5.326-13.87-9.045-20.934-13.394-1.762-1.085-3.723-1.846-5.593-2.755l-1.021 1.824c4.018 2.723 8.041 5.44 12.055 8.171 12.655 8.61 25.752 16.422 39.852 22.48 16.443 7.064 34.141 6.901 51.388 7.934 26.555 1.589 53.128-.194 79.254-5.774 9.309-1.988 19.287-2.27 27.159-8.861.545-.457 1.522-.387 2.291-.59 4.218-1.111 8.444-2.193 12.636-3.393.522-.15.824-.976 1.292-1.423 3.007-2.877 5.782-6.076 9.111-8.518 4.944-3.627 10.621-6.298 15.378-10.13 7.219-5.816 13.472-12.886 20.926-18.341 16.028-11.728 28.383-27.019 40.942-41.93 9.566-11.356 17.083-24.461 25.29-36.933 5.524-8.396 11.127-16.949 12.947-27.005 1.734-9.584 2.46-19.35 3.623-29.037.967-8.058 2.365-16.095 2.778-24.182.565-11.071 1.121-22.234.32-33.259-.932-12.852-3.906-25.551-4.933-38.401-1.039-12.987-2.619-25.432-10.351-36.548-9.74-14.005-18.148-28.996-28.559-42.457-9.577-12.383-20.894-23.449-31.746-34.808-5.659-5.923-11.69-11.567-18.053-16.72-7.722-6.254-15.968-11.86-23.993-17.739-3.865-2.83-7.961-5.393-11.571-8.517-7.225-6.253-15.387-10.414-24.665-12.615-6.752-1.602-13.334-4.16-20.158-5.167-14.731-2.174-29.533-4.568-44.372-5.139-19.533-.75-39.183-1.278-58.648 1.798-7.841 1.24-16.009 1.61-23.416 4.159-19.806 6.814-36.987 18.686-54.252 30.245-1.247.835-2.152 2.18-3.216 3.288l.872 1.228c2.251-1.149 4.671-2.057 6.728-3.487 13.168-9.153 25.949-18.94 41.428-24.136 1.073-.36 1.929-1.326 2.984-1.786 3.148-1.374 6.25-3.392 9.539-3.806 12.223-1.539 24.508-2.602 36.785-3.658 1.682-.145 3.474.684 5.179 1.185 2.932.861 5.802 2.481 8.755 2.628 17.906.892 35.834 1.343 53.742 2.21 4.431.215 8.875 1.174 13.207 2.227 9.286 2.255 18.546 4.643 27.729 7.282 4.75 1.365 9.702 2.734 13.879 5.24 8.337 5.004 16.326 10.621 24.227 16.306 7.738 5.568 15.695 10.989 22.651 17.448 11.9 11.05 23.292 22.674 34.457 34.474 3.035 3.207 4.493 7.907 6.088 11.593Zm-339.718-39.495-8.106 6.939c5.229 1.477 19.331-12.042 20.752-18.979-4.575 4.443-8.302 8.062-12.646 12.04Zm27.964 357.474c-2.869-5.74-8.389-7.338-14.12-8.703 3.687 4.526 8.115 8.095 13.507 10.44.073.031.483-.711.613-1.737Zm-4.751-377.211-8.921 6.934c8.9-.628 12.641-3.578 13.06-9.228-1.304.684-2.44 1.28-4.139 2.294Zm-39.331 39.316 2.393-2.447-1.87-1.143c-.386 1.142-.772 2.283-.523 3.59Zm1.304 298.915-2.345.537 2.257 2.258c.179-.781.358-1.563.088-2.795Z"/><path fill="#1A1758" d="M264 525c-12.877-1.05-25.892-1.294-38.577-3.466-7.116-1.219-13.966-5.123-20.448-8.7-17.17-9.475-33.018-20.892-48.776-32.619-19.678-14.644-35.686-32.525-50.849-51.369-8.312-10.33-16.596-20.823-23.497-32.096-4.3-7.024-6.215-15.571-8.79-23.567-2.097-6.513-3.584-13.222-5.344-19.844-.212-.8-.588-1.585-.644-2.394-.718-10.384-1.692-20.762-1.996-31.159a609.836 609.836 0 0 1-.002-35.477c.322-11.063.847-22.159 2.143-33.139.738-6.247 3.263-12.275 4.864-18.432.913-3.513 1.568-7.093 2.372-10.635 2.723-12.001 9.66-21.696 17.058-31.139 7.877-10.052 15.497-20.319 23.694-30.103 5.414-6.462 11.603-12.281 17.53-18.304 4.634-4.709 8.966-9.86 14.189-13.817 13.452-10.192 27.004-20.321 41.135-29.528 10.323-6.726 21.383-12.48 32.605-17.594 4.993-2.276 11.166-2.21 16.847-2.665 7.455-.597 14.952-.842 22.434-.91 14.657-.134 29.354-.696 43.967.126 18.498 1.04 36.929 3.245 54.617 9.428 2.645.924 5.484 1.353 8.265 1.822 14.998 2.534 26.272 12.07 38.486 20.015 18.709 12.169 33.704 28.515 49.909 43.481 6.034 5.573 10.85 12.465 16.765 18.921.71.164.876.164 1.055.529.095.854.033 1.439.282 1.82 4.789 7.317 9.593 14.625 14.463 21.888.529.789 1.485 1.291 2.389 2.236 2.382 3.77 4.618 7.231 6.919 10.997.688.768 1.311 1.231 2.087 2.034 2.075 7.818 3.959 15.306 5.933 22.77 1.581 5.978 3.272 11.928 4.915 18.351.333 4.487.667 8.513 1 12.955 1.001 8.552 2.633 16.669 2.864 24.825.433 15.304.788 30.679-3.12 46.083-.419 4.774-.581 9.225-.84 14.041-.695 1.869-1.484 3.325-1.862 4.882-2.403 9.917-3.475 20.379-7.391 29.646-4.315 10.211-10.834 19.588-17.1 28.85-5.838 8.632-12.406 16.801-19.031 24.862-4.724 5.749-9.878 11.182-15.196 16.393-6.364 6.236-12.906 12.324-19.733 18.045-9.874 8.275-19.706 16.688-30.247 24.054-8.783 6.138-18.28 11.206-28.844 14.293-14.955 4.37-29.681 9.465-45.789 9.648-.762.347-1.237.654-2.162.962-10.949.667-21.44 1.492-31.947 1.944-6.928.297-13.88-.015-20.819.102-1.933.033-3.856.621-5.783.954ZM73.997 334.187c-.653 2.723-2.318 5.679-1.756 8.123 1.344 5.84 3.335 11.531 4.168 17.521.24 1.727 1.34 3.342 1.532 5.066.518 4.635.416 9.361 1.227 13.933.564 3.175 2.035 6.248 3.448 9.201 2.85 5.96 10.645 8.509 11.24 16.108.032.4.61.763.946 1.132 7.062 7.761 14.401 15.291 21.129 23.332 11.802 14.106 23.38 28.269 38.796 38.866 9.951 6.84 18.895 15.126 28.658 22.26 12.364 9.035 25.428 17.045 40.068 21.891 5.123 1.696 10.668 2.153 16.041 3.054 6.984 1.171 13.969 3.013 20.987 3.187 29.245.722 58.534 1.078 87.082-6.916 11.649-3.263 23.797-5.706 34.579-10.89 19.278-9.269 35.695-23.087 51.017-37.907 10.502-10.159 20.31-21.064 30.053-31.972 8.826-9.88 17.041-20.281 22.522-32.532 1.004-2.245 1.812-4.809 3.459-6.494 5.417-5.541 8.014-11.851 6.886-19.618-.133-.914-.002-2.304.583-2.815 3.699-3.235 2.025-7.412 2.202-11.254.059-1.289-.599-2.964-.004-3.815 2.452-3.506 3.629-6.836 1.452-11.04-.562-1.085.15-3.832 1.17-4.553 3.733-2.643 2.418-6.228 2.337-9.542-.089-3.638-.797-7.271-.761-10.901.065-6.463.62-12.92.725-19.383.131-8.102.06-16.208-.018-24.311-.029-3.109.899-7.541-.742-9.048-3.409-3.131-2.989-5.839-1.79-9.323.297-.865.45-2.226-.015-2.839-4.933-6.492.811-15.459-5.076-21.7-.248-.263-.051-.968-.025-1.465.317-5.888-1.475-11.159-4.465-16.162-2.363-3.953-4.502-8.041-6.706-12.088-1.03-1.893-1.717-4.032-3.01-5.714-6.356-8.269-12.267-16.993-19.442-24.5-15.343-16.054-30.768-32.124-47.272-46.949-18.67-16.771-40.234-28.754-65.568-32.767-14.546-2.305-29.017-6.698-43.576-6.945-22.946-.39-45.949-2.172-68.995 3.015-14.083 3.17-27.034 7.482-39.016 15.171-5.853 3.755-11.783 7.431-17.344 11.589a1527.73 1527.73 0 0 0-36.106 27.814c-3.863 3.072-7.31 6.756-10.549 10.504-10.141 11.734-21.965 22.036-30.145 35.459-1.068 1.752-3.243 2.79-4.6 4.414-2.247 2.69-4.288 5.558-6.327 8.414-.742 1.039-1.054 2.408-1.865 3.372-2.942 3.498-6.517 6.578-8.871 10.419-1.798 2.932-3.042 6.819-2.878 10.202.292 6.054-2.278 11.305-3.129 16.914-.911 6.011-2.193 11.763-4.185 17.445-.241.688.235 1.616.335 2.438.537 4.404 1.258 8.8 1.464 13.22.062 1.32-1.359 2.695-2.058 4.067-.957 1.877-2.63 3.755-2.682 5.668-.271 9.991-.123 19.993-.129 29.991-.002 3.284-.65 6.738 3.69 8.248.749.26 1.142 2.259 1.246 3.494.197 2.316.062 4.661.063 7.911Z"/><path fill="#191656" d="M325 521c15.819-.145 30.545-5.24 45.5-9.61 10.564-3.087 20.061-8.155 28.844-14.293 10.541-7.366 20.373-15.779 30.247-24.055 6.827-5.72 13.369-11.808 19.733-18.044 5.318-5.211 10.472-10.645 15.196-16.393 6.625-8.061 13.193-16.23 19.031-24.862 6.266-9.262 12.785-18.639 17.1-28.851 3.916-9.266 4.988-19.729 7.391-29.645.378-1.557 1.167-3.013 2.235-5.01.554-5.075.639-9.656.723-14.237 3.652-15.081 3.297-30.455 2.864-45.759-.231-8.157-1.863-16.273-2.609-25.146.228-4.915 2.796-9.41-1.255-13.095-1.643-5.962-3.334-11.912-4.915-17.89-1.974-7.464-3.858-14.952-5.998-23.076-.84-1.109-1.464-1.571-2.087-2.034-2.236-3.461-4.472-6.921-6.867-11.068-2.872-6.53-5.117-12.663-8.478-18.106-1.962-3.178-5.71-5.254-8.655-7.826h-.75c-2.432-4.015-3.89-8.715-6.925-11.922-11.165-11.8-22.556-23.424-34.457-34.474-6.956-6.459-14.913-11.88-22.65-17.448-7.901-5.685-15.89-11.302-24.227-16.305-4.177-2.507-9.129-3.876-13.879-5.241-9.183-2.639-18.444-5.027-27.73-7.282-4.332-1.053-8.775-2.013-13.206-2.227-17.908-.867-35.836-1.318-53.743-2.21-2.953-.147-5.823-1.767-8.754-2.628-1.705-.501-3.497-1.33-5.179-1.185-12.278 1.056-24.563 2.12-36.785 3.658-3.29.414-6.391 2.432-9.539 3.806-1.055.46-1.911 1.426-2.984 1.786-15.479 5.196-28.261 14.983-41.429 24.136-2.056 1.43-4.476 2.338-6.728 3.487l-.871-1.228c1.064-1.108 1.969-2.453 3.216-3.288 17.265-11.56 34.446-23.43 54.252-30.245 7.406-2.549 15.575-2.92 23.416-4.159 19.465-3.076 39.115-2.549 58.648-1.798 14.839.57 29.64 2.965 44.371 5.139 6.824 1.007 13.407 3.565 20.159 5.167 9.278 2.2 17.44 6.362 24.664 12.615 3.61 3.124 7.706 5.686 11.571 8.517 8.026 5.879 16.272 11.485 23.994 17.739 6.363 5.153 12.394 10.797 18.053 16.72 10.851 11.359 22.168 22.425 31.746 34.808 10.411 13.461 18.818 28.452 28.558 42.457 7.732 11.116 9.313 23.561 10.351 36.548 1.028 12.85 4.001 25.549 4.934 38.401.8 11.025.245 22.188-.32 33.259-.413 8.087-1.811 16.124-2.778 24.182-1.163 9.687-1.889 19.453-3.623 29.037-1.82 10.056-7.423 18.609-12.948 27.005-8.207 12.472-15.723 25.577-25.289 36.933-12.56 14.911-24.915 30.202-40.942 41.93-7.455 5.455-13.707 12.525-20.926 18.341-4.757 3.832-10.434 6.503-15.378 10.13-3.329 2.442-6.104 5.641-9.112 8.518-.467.447-.769 1.273-1.291 1.423-4.193 1.2-8.419 2.282-12.636 3.393-.769.203-1.746.133-2.292.59-7.871 6.591-17.85 6.873-27.159 8.861-26.126 5.58-52.699 7.363-79.254 5.774-17.246-1.033-34.944-.87-51.387-7.934-14.101-6.058-27.198-13.87-39.852-22.48-4.014-2.731-8.037-5.448-12.056-8.171l1.021-1.824c1.87.909 3.832 1.67 5.594 2.755 7.064 4.349 14.688 8.068 20.934 13.394 8.02 6.839 18.052 9.475 26.816 14.67 4.093 2.427 9.855 2.168 14.899 2.828 7.683 1.005 15.399 1.767 23.104 2.6 3.849.416 7.815 1.534 11.677-1.587-1.418-1.259-2.576-2.286-3.816-3.642 1.844-.662 3.767-1.251 5.7-1.283 6.939-.117 13.891.195 20.819-.102 10.507-.452 20.998-1.277 32.136-1.76 1.18-.272 1.721-.728 2.262-1.184ZM132.004 131.996c4.036-3.798 7.762-7.417 12.338-11.86-1.421 6.938-15.524 20.457-20.752 18.979 2.702-2.313 5.403-4.626 8.414-7.119Zm27.716 357.976c-.191.704-.601 1.446-.674 1.415-5.392-2.344-9.82-5.914-13.507-10.439 5.731 1.364 11.25 2.962 14.181 9.024Zm-4.529-377.742a122.603 122.603 0 0 1 3.857-2.085c-.418 5.65-4.159 8.6-13.06 9.228 2.974-2.311 5.948-4.623 9.203-7.143Zm-25.136 354.11c5.621 2.371 10.619 5.834 14.028 11.735-3.768.139-9.964-5.16-14.028-11.735Zm-.111-.685c-1.613-.823-3.282-1.991-4.952-3.16l1.562-1.58c1.111 1.465 2.223 2.93 3.39 4.74Zm-14.682-313.982c.068-1.225.454-2.366.84-3.507l1.87 1.143c-.798.815-1.595 1.631-2.71 2.364Zm1.842 299.223c.046 1.006-.133 1.788-.312 2.569l-2.257-2.258c.782-.179 1.563-.358 2.569-.311Z"/><path fill="#1A175A" d="M74 333.728c-.002-2.791.133-5.136-.063-7.452-.105-1.235-.498-3.234-1.246-3.494-4.34-1.51-3.693-4.964-3.691-8.248.006-9.998-.142-20 .13-29.991.052-1.914 1.724-3.791 2.681-5.668.7-1.372 2.12-2.747 2.058-4.067-.205-4.42-.927-8.816-1.464-13.22-.1-.822-.576-1.75-.335-2.438 1.992-5.682 3.274-11.434 4.185-17.445.85-5.609 3.422-10.861 3.129-16.914-.164-3.383 1.08-7.27 2.878-10.202 2.354-3.841 5.929-6.921 8.871-10.419.811-.964 1.123-2.333 1.865-3.372 2.039-2.856 4.08-5.724 6.328-8.414 1.356-1.624 3.531-2.662 4.599-4.414 8.18-13.423 20.004-23.725 30.145-35.459 3.24-3.748 6.687-7.432 10.549-10.504a1529.789 1529.789 0 0 1 36.106-27.814c5.561-4.158 11.491-7.834 17.344-11.589 11.982-7.689 24.933-12 39.016-15.17 23.046-5.188 46.049-3.406 68.995-3.016 14.559.247 29.03 4.64 43.576 6.945 25.334 4.013 46.898 15.996 65.568 32.766 16.504 14.826 31.929 30.896 47.272 46.95 7.175 7.507 13.086 16.231 19.442 24.5 1.293 1.682 1.98 3.821 3.01 5.714 2.204 4.047 4.343 8.135 6.706 12.088 2.99 5.003 4.782 10.274 4.465 16.162-.026.497-.223 1.202.025 1.465 5.887 6.241.144 15.208 5.076 21.7.465.613.313 1.974.015 2.839-1.199 3.484-1.619 6.192 1.79 9.323 1.641 1.507.713 5.939.742 9.048.078 8.103.149 16.209.018 24.311-.104 6.463-.66 12.92-.725 19.383-.036 3.63.672 7.263.761 10.901.081 3.314 1.396 6.899-2.337 9.542-1.02.721-1.732 3.468-1.17 4.553 2.177 4.204 1 7.534-1.452 11.04-.595.851.063 2.526.004 3.815-.177 3.842 1.497 8.019-2.202 11.254-.585.511-.716 1.901-.583 2.815 1.128 7.767-1.469 14.077-6.886 19.618-1.647 1.685-2.455 4.249-3.459 6.494-5.481 12.251-13.696 22.652-22.522 32.532-9.743 10.908-19.551 21.813-30.053 31.972-15.322 14.82-31.739 28.638-51.016 37.907-10.783 5.184-22.93 7.627-34.579 10.89-28.549 7.994-57.838 7.638-87.083 6.915-7.018-.173-14.003-2.015-20.987-3.186-5.373-.901-10.918-1.358-16.041-3.054-14.64-4.846-27.704-12.856-40.068-21.891-9.763-7.134-18.707-15.42-28.658-22.26-15.416-10.597-26.994-24.76-38.796-38.866-6.728-8.041-14.067-15.571-21.13-23.332-.335-.369-.913-.732-.944-1.132-.596-7.599-8.39-10.148-11.241-16.108-1.413-2.953-2.884-6.026-3.447-9.201-.812-4.572-.71-9.298-1.228-13.933-.192-1.724-1.291-3.339-1.531-5.066-.834-5.99-2.825-11.681-4.169-17.521-.562-2.444 1.103-5.4 1.757-8.582Zm386-150.235c-8.96-9.959-17.532-20.306-26.99-29.767-9.252-9.256-19.148-17.924-29.258-26.245-6.634-5.46-13.801-10.509-21.375-14.523-7.123-3.775-15.09-5.961-22.692-8.83-4.575-1.728-9.03-4.183-13.766-4.998-15.669-2.698-31.381-6.025-47.19-6.796-16.856-.822-33.855.741-50.764 1.728-13.614.794-27.024 2.756-38.927 10.377-8.509 5.449-17.492 10.195-25.743 15.997-8.085 5.686-15.592 12.211-23.2 18.552-6.63 5.526-13.352 11-19.476 17.062-6.6 6.534-12.93 13.424-18.697 20.699-8.647 10.907-17.687 21.708-24.664 33.66-4.819 8.255-7.068 18.227-9.335 27.702-3.174 13.27-5.693 26.73-7.78 40.22-3.257 21.063-.312 42.015 2.543 62.868 1.117 8.156 3.233 16.207 5.355 24.183 1.974 7.423 3.348 15.396 7.144 21.86 6.854 11.67 15.043 22.602 23.204 33.444 5.679 7.545 11.633 15.085 18.543 21.455 12.668 11.679 26.018 22.631 39.322 33.596 5.356 4.415 11.084 8.515 17.097 11.963 10.304 5.909 20.443 12.899 31.605 16.323 15.301 4.692 31.514 6.234 47.715 6 8.998-.129 18.077.725 26.98-.2 13.097-1.36 26.098-3.754 39.074-6.075 3.152-.563 5.961-2.824 9.078-3.842 6.599-2.155 13.18-4.771 19.98-5.818 12.855-1.98 22.438-10.029 32.205-17.099 14.631-10.591 27.692-23.096 40.284-36.253 15.166-15.844 28.384-32.957 40.254-51.222 2.472-3.804 4.062-8.373 5.203-12.81 2.047-7.953 3.839-16.016 5.014-24.137 1.469-10.145 2.202-20.397 3.264-30.601.222-2.133.396-4.277.765-6.386.676-3.862 2.316-7.755 2.074-11.541-.724-11.346-2.099-22.654-3.346-33.963-.761-6.903-1.48-13.83-2.71-20.658-1.575-8.745-3.612-17.41-5.527-26.092-.496-2.249-.781-4.772-2.014-6.594-7.445-11.003-15.137-21.84-23.249-33.239Z"/><path fill="#1A1756" d="M473.012 172.365c2.933 2.207 6.681 4.283 8.643 7.461 3.361 5.443 5.606 11.576 8.332 17.796-.745-.258-1.701-.761-2.23-1.55-4.87-7.262-9.674-14.57-14.463-21.887-.249-.381-.187-.966-.282-1.82Zm37.732 163.958a99.397 99.397 0 0 1-.371 13.549c-.21-4.323-.048-8.774.371-13.549ZM510 252.461c4.051 3.225 1.483 7.719 1.255 12.218-.588-3.705-.922-7.731-1.255-12.218ZM324.71 521.039c-.252.417-.793.874-1.522 1.145.285-.492.759-.799 1.522-1.145Zm172.356-311.733c.559.157 1.182.619 1.871 1.388-.559-.157-1.182-.62-1.871-1.388Z"/><path fill="#1B175D" d="M460.248 183.747c7.861 11.146 15.552 21.982 22.997 32.985 1.233 1.822 1.519 4.345 2.015 6.594 1.915 8.682 3.951 17.347 5.527 26.093 1.23 6.827 1.948 13.754 2.709 20.657 1.247 11.309 2.622 22.617 3.347 33.963.241 3.786-1.399 7.679-2.075 11.541-.369 2.109-.543 4.253-.765 6.386-1.062 10.204-1.795 20.456-3.263 30.601-1.176 8.121-2.968 16.184-5.014 24.137-1.142 4.437-2.731 9.006-5.204 12.81-11.87 18.265-25.088 35.378-40.253 51.222-12.593 13.157-25.654 25.662-40.285 36.253-9.767 7.07-19.35 15.119-32.205 17.099-6.8 1.047-13.381 3.663-19.98 5.818-3.117 1.019-5.926 3.279-9.078 3.842-12.976 2.321-25.977 4.715-39.074 6.075-8.903.925-17.982.071-26.979.2-16.201.234-32.414-1.308-47.716-6-11.162-3.424-21.301-10.414-31.604-16.323-6.014-3.448-11.741-7.548-17.097-11.962-13.305-10.966-26.655-21.918-39.322-33.596-6.911-6.371-12.865-13.911-18.544-21.456-8.161-10.842-16.349-21.774-23.204-33.444-3.796-6.464-5.17-14.437-7.144-21.86-2.122-7.976-4.238-16.027-5.355-24.183-2.855-20.852-5.8-41.805-2.542-62.868 2.086-13.489 4.605-26.95 7.78-40.22 2.267-9.475 4.515-19.447 9.334-27.702 6.978-11.952 16.017-22.753 24.664-33.66 5.767-7.275 12.097-14.165 18.698-20.699 6.123-6.061 12.845-11.536 19.476-17.062 7.607-6.341 15.115-12.866 23.2-18.552 8.25-5.801 17.234-10.548 25.743-15.996 11.902-7.622 25.313-9.584 38.927-10.378 16.909-.987 33.908-2.55 50.763-1.728 15.809.771 31.521 4.098 47.191 6.796 4.735.815 9.191 3.271 13.766 4.998 7.601 2.869 15.569 5.055 22.692 8.83 7.574 4.015 14.74 9.063 21.374 14.523 10.11 8.322 20.006 16.99 29.258 26.245 9.458 9.461 18.03 19.808 27.242 30.021Zm-24.015 247.147c1.73-1.273 3.813-2.257 5.133-3.866 7.777-9.483 15.388-19.102 23.034-28.693 6.728-8.441 11.658-17.674 12.955-28.614.425-3.581 1.424-7.095 2.179-10.635 1.812-8.491 4.596-16.907 5.241-25.485 1.109-14.74 1.188-29.582 1.113-44.379-.046-9.1-.744-18.253-1.958-27.274-1.044-7.754-3.081-15.392-4.963-23.011-1.889-7.646-3.259-15.599-6.468-22.687-3.025-6.679-7.871-12.621-12.416-18.502-7.173-9.283-14.207-18.779-22.315-27.209-10.697-11.123-22.184-21.516-33.679-31.835-14.634-13.137-31.896-21.442-50.995-25.847-9.19-2.12-18.463-3.914-27.753-5.547-7.623-1.34-15.31-3.011-22.996-3.162-22.708-.447-45.509-1.232-67.885 3.954-6.844 1.586-14.063 2.935-20.131 6.208-13.188 7.115-26.01 15.003-38.463 23.349-7.784 5.218-14.79 11.657-21.833 17.899-6.186 5.483-12.362 11.087-17.778 17.302-7.288 8.363-13.655 17.52-20.757 26.055-10.362 12.453-16.266 26.902-19.246 42.557-1.662 8.728-2.212 17.668-3.267 26.512-.098.824.018 1.803-.388 2.439-3.594 5.626-2.534 11.902-2.576 17.999-.076 11.165-.037 22.332-.004 33.498a24.45 24.45 0 0 0 .405 4.447c1.827 9.638 3.525 19.306 5.63 28.884 2.006 9.139 3.768 18.43 6.948 27.178 2.161 5.944 6.567 11.076 9.994 16.556 9.734 15.564 21.638 29.534 34.89 41.97 14.306 13.425 29.465 26.138 46.986 35.533 2.9 1.556 5.261 4.274 8.264 5.449 9.377 3.669 17.574 10.12 28.017 11.331 11.135 1.293 22.195 4.337 33.309 4.449 16.536.167 33.196 2.127 49.694-1.604 8.03-1.816 16.378-2.204 24.442-3.905 7.249-1.529 14.201-4.527 21.469-5.898 19.462-3.673 34.648-14.622 48.707-27.624.872-.807.739-2.699 1.525-4.575l29.025-18.922c-1.75-1.859-2.758-2.93-3.089-4.295Z"/><path fill="#FEFEFE" d="m435.555 431.188 3.766 4.001a7365.97 7365.97 0 0 1-29.608 19.234c-12.302 4.811-23.733 10.454-35.819 13.488-11.946 2.998-24.553 3.361-37.266 4.739-22.703-.661-45.131.113-67.287-1.988-38.564-3.657-71.424-18.463-91.835-54.235-3.46-9.374-7.648-18.178-9.998-27.447-2.476-9.764-3.197-19.972-4.59-30.446-.013-9.088-.21-17.717-.211-26.345-.002-22.728.081-45.455.29-68.566 2.683-14.578 4.448-28.961 7.924-42.918 4.293-17.232 13.779-32.115 26.086-44.678 10.442-10.66 23.563-17.968 37.957-22.027 11.132-3.139 22.677-4.81 34.41-7.047 1.12-.023 1.868-.132 3.013-.145 1.473-.015 2.549-.128 4.034-.152 1.792-.011 3.173-.11 5.011-.089 10.167.004 19.879-.115 30.039-.096 6.253.153 12.065.361 17.863.154 24.973-.891 49.346 1.739 72.759 12.099 10.525 6.477 20.891 12.584 30.963 19.143 1.828 1.19 5.558 3.457 1.522 7.011-3.844 4.101-7.373 8.055-11.201 12.136-2.584 2.622-4.867 5.117-7.425 7.764-5.499 5.843-10.724 11.533-16.268 17.37a77.17 77.17 0 0 0-3.485 3.139c-13.687-8.147-27.664-13.218-43.409-14.22-34.911-.325-69.444-.567-103.977-.626-5.879-.01-9.02 3.471-9.77 9.81-.035.41.013.576-.022 1.15-.028 2.96.027 5.511-.004 8.426-.091 28.801-.121 57.239-.094 85.676.018 18.952.116 37.903.098 57.331.11 3.51.303 6.544.228 9.867-.228 1.622-.189 2.954-.231 4.698-.028 1.811.026 3.209-.004 5.048.232 3.587.549 6.734.841 10.201.678 1.044 1.38 1.766 2.228 2.816 2.03 1.2 3.914 2.072 6.184 3.1 29.151.161 57.915.282 86.679.13 18.641-.098 36.173-4.845 52.598-13.662 3.046-1.635 6.093-3.266 9.292-4.593 5.129 5.459 10.106 10.612 15.193 16.068 1.922 2.094 3.733 3.886 5.686 5.992 3.494 3.769 6.847 7.223 10.292 10.996 2.577 2.776 5.062 5.235 7.548 7.693Z"/><path fill="#1B1760" d="M337.025 472.791c12.317-1.519 24.924-1.882 36.869-4.88 12.087-3.034 23.518-8.676 35.594-13.244.023 1.32.156 3.212-.716 4.019-14.059 13.002-29.245 23.951-48.707 27.624-7.268 1.371-14.22 4.369-21.469 5.898-8.064 1.701-16.412 2.089-24.442 3.905-16.498 3.731-33.158 1.771-49.694 1.604-11.114-.112-22.174-3.156-33.309-4.449-10.443-1.211-18.64-7.662-28.017-11.331-3.003-1.175-5.364-3.893-8.264-5.449-17.521-9.395-32.681-22.108-46.986-35.533-13.252-12.436-25.156-26.406-34.89-41.97-3.427-5.48-7.833-10.612-9.994-16.556-3.18-8.748-4.942-18.039-6.949-27.178-2.104-9.578-3.802-19.246-5.63-28.884a24.387 24.387 0 0 1-.404-4.447c-.032-11.166-.072-22.333.004-33.498.042-6.097-1.018-12.373 2.576-17.999.406-.636.29-1.615.388-2.439 1.055-8.844 1.605-17.784 3.266-26.512 2.981-15.655 8.885-30.104 19.247-42.557 7.102-8.535 13.469-17.692 20.757-26.055 5.416-6.215 11.592-11.819 17.778-17.302 7.043-6.242 14.049-12.681 21.833-17.899 12.453-8.346 25.275-16.234 38.463-23.349 6.068-3.273 13.287-4.622 20.131-6.208 22.376-5.186 45.177-4.401 67.885-3.954 7.686.151 15.373 1.822 22.996 3.162 9.29 1.633 18.563 3.427 27.753 5.547 19.099 4.405 36.361 12.71 50.995 25.847 11.495 10.319 22.982 20.712 33.679 31.835 8.108 8.43 15.142 17.926 22.315 27.209 4.544 5.881 9.391 11.823 12.416 18.502 3.209 7.088 4.579 15.041 6.468 22.687 1.882 7.619 3.919 15.257 4.963 23.011 1.214 9.021 1.912 18.174 1.958 27.274.075 14.797-.004 29.639-1.113 44.379-.645 8.578-3.429 16.994-5.241 25.485-.755 3.54-1.754 7.054-2.179 10.635-1.297 10.94-6.227 20.173-12.955 28.614-7.646 9.591-15.257 19.21-23.034 28.693-1.32 1.609-3.403 2.593-5.472 4.013-2.824-2.311-5.309-4.77-7.723-7.852 6.345-8.36 12.844-15.927 18.817-23.888 4.344-5.791 8.201-11.981 11.846-18.243 1.355-2.329 1.481-5.372 2.179-8.087 2.3-8.941 5.531-17.762 6.694-26.848 1.829-14.289 3.155-28.761 3.072-43.147-.109-19.005-.081-38.149-5.444-56.743-2.331-8.08-2.908-16.851-6.321-24.385-3.766-8.315-9.866-15.573-14.958-23.286-3.046-4.616-6.108-9.221-9.162-13.831 3.721-3.407-.01-5.674-1.837-6.864-10.072-6.559-20.438-12.666-30.934-19.538-1.616-2.758-2.619-5.333-4.452-6.987-10.912-9.843-23.746-16.24-37.78-20.368-8.886-2.614-17.737-5.347-26.64-7.902-4.98-1.429-10.012-2.692-15.059-3.862-3.059-.709-6.205-1.032-9.285-1.658-1.917-.39-3.767-1.409-5.675-1.49-23.738-1.006-47.329.12-70.616 5.254-3.058.674-6.492.633-9.124 2.072-9.583 5.239-19.32 10.37-28.207 16.66-10.95 7.752-21.677 16.015-31.451 25.177-10.094 9.462-20.694 18.627-28.661 30.151-6.538 9.457-15.213 17.651-17.715 29.548-.576 2.739-1.43 5.418-2.044 8.15-2.492 11.088-6.149 22.081-7.119 33.304-1.438 16.626-1.116 33.418-1.221 50.141-.045 7.122-.033 14.393 1.286 21.343 2.457 12.946 5.875 25.71 8.929 38.541.606 2.545.845 5.376 2.157 7.522 8.767 14.339 18.799 27.84 30.791 39.573 11.613 11.362 23.906 22.087 36.45 32.424 11.135 9.176 22.969 18.055 36.747 22.431 11.688 3.713 24.23 5.202 36.518 6.424 10.228 1.017 20.796-.906 30.921.53 10.729 1.522 19.959-5.791 30.45-3.447.42.094.94-.272 1.415-.416 2.76-.836 5.484-1.835 8.291-2.463 3.45-.772 6.694-1.504 5.996-6.19Z"/><path fill="#1C1965" d="M336.629 472.65c1.095 4.827-2.149 5.559-5.598 6.331-2.807.628-5.532 1.626-8.292 2.463-.475.144-.995.51-1.414.416-10.492-2.344-19.722 4.969-30.451 3.447-10.125-1.436-20.693.487-30.921-.53-12.288-1.222-24.83-2.711-36.518-6.424-13.778-4.376-25.612-13.255-36.747-22.431-12.544-10.337-24.837-21.062-36.45-32.424-11.992-11.733-22.024-25.234-30.791-39.573-1.312-2.146-1.551-4.977-2.157-7.523-3.054-12.83-6.472-25.594-8.929-38.54-1.319-6.95-1.331-14.221-1.286-21.343.105-16.723-.217-33.515 1.221-50.141.97-11.223 4.627-22.216 7.119-33.304.614-2.732 1.468-5.411 2.044-8.15 2.502-11.897 11.177-20.091 17.715-29.548 7.967-11.525 18.567-20.69 28.661-30.152 9.774-9.161 20.501-17.425 31.451-25.176 8.887-6.29 18.624-11.421 28.207-16.66 2.632-1.439 6.066-1.398 9.124-2.073 23.287-5.134 46.878-6.259 70.616-5.253 1.908.081 3.759 1.1 5.675 1.49 3.08.626 6.226.948 9.285 1.658 5.047 1.17 10.079 2.433 15.059 3.862 8.903 2.555 17.754 5.288 26.64 7.902 14.034 4.128 26.868 10.525 37.78 20.368 1.833 1.653 2.836 4.228 4.192 6.773-23.182-9.751-47.556-12.381-72.529-11.49-5.797.207-11.609-.001-17.969-.458-2.921-1.68-5.214-3.78-7.667-3.989-6.067-.518-12.209-.102-18.319-.197-3.169-.049-4.602 1.332-4.402 4.465-1.382.099-2.764.199-4.665-.08-1.787-.137-3.054.104-4.321.345-.748.11-1.496.219-2.615-.17-.674-6.242-2.899-7.807-10.506-6.395-11.18 2.075-22.296 4.518-33.39 7.022-2.54.574-4.987 1.843-7.295 3.119-15.558 8.599-28.907 20.089-41.393 32.552-8.449 8.433-16.058 17.707-24.473 26.178-5.212 5.247-8.526 11.36-10.504 18.229-2.458 8.536-4.731 17.151-6.518 25.847a189.115 189.115 0 0 0-3.198 22.386c-.615 7.392.566 14.849-2.527 22.111-1.079 2.533.156 6.13.589 9.206.453 3.215 1.55 6.365 1.767 9.584.412 6.127-.34 12.414.721 18.399 1.95 11.002 4.876 21.83 7.371 32.737 1.858 8.124 4.199 15.911 10.151 22.286 5.881 6.299 11.011 13.303 16.941 19.552 2.902 3.058 4.928 7.903 10.476 7.439 20.33 35.406 53.19 50.212 91.754 53.869 22.156 2.101 44.584 1.327 67.286 1.988Z"/><path fill="#1F1979" d="M247.882 408.409c-1.884-.873-3.768-1.746-5.655-3.267 1.168-3.072.608-4.651-2.205-5.558-.315-2.81-.619-5.194-.923-7.578-.054-1.398-.108-2.796.15-4.933.297-2.046.283-3.354.268-4.661-.192-3.034-.384-6.068-.072-9.393 3.499.47 6.529 1.114 9.473 2.035 1.804.563 4.324 1.097 5.039 2.436 1.773 3.321 4.336 3.622 7.489 3.54 4.658-.12 9.321.007 13.98-.073.93-.016 1.853-.491 2.78-.754l-.164-1.215c-1.945 0-3.976.347-5.807-.109-1.48-.369-2.718-1.706-4.063-2.614 1.256-1.064 2.449-2.944 3.78-3.048 4.964-.388 9.973-.205 14.966-.214 6.772-.012 13.544-.003 20.581-.003-.228-2.04-.373-3.338-.111-4.73 10.535-.108 20.666-.012 30.792-.166 10.423-.158 18.574-7.203 20.117-17.212 1.271-8.244-2.45-14.413-8.382-20.057.044-1.131.099-1.794.072-2.454-.176-4.384-.495-8.67 5.222-10.298.957-.273 1.678-3.005 1.711-4.617.17-8.27.296-16.554-.061-24.811-.1-2.306-1.896-4.538-2.783-7.116 1.318-2.413 2.506-4.514 3.977-6.877.364-1.009.445-1.756.435-2.876.683-13.002-7.085-21.651-19.59-22.108-1.636-.06-3.269-.228-4.859-.737 1.812-4.786-.139-6.195-4.333-5.96-3.092.174-5.902-.683-6.455-4.11-.588-3.645-2.88-3.686-5.73-3.987-2.281-.241-5.461-.879-6.46-2.465-1.991-3.159-4.429-3.47-7.556-3.449-10.646.069-21.295.109-31.936-.115-1.444-.03-2.855-1.624-4.281-2.495 1.436-1.111 2.726-2.75 4.346-3.199 2.015-.559 4.303-.134 6.473-.134l-.029-2.027c-5.668 0-11.338.092-17.003-.037-3.029-.069-5.384.361-7.026 3.447-.683 1.284-2.858 2.008-4.501 2.498-3.43 1.024-6.957 1.723-10.445 2.556-.054-2.552-.108-5.103.039-8.163.366-.823.293-1.085-.016-1.295.668-6.094 3.809-9.575 9.688-9.565 34.533.059 69.066.301 103.993 1.04 2.345 1.457 4.37 2.228 6.234 3.281 5.454 3.082 9.933 7.051 14.255 11.808 5.186 5.707 8.545 12.07 10.35 18.974 2.76 10.559 5.634 21.083 6.864 32.132 1.382 12.406 3.47 24.618 1.472 37.092-1.74 10.859-2.744 21.919-5.558 32.496-2.231 8.382-4.189 17.344-10.258 24.158-4.649 5.22-9.165 11.085-14.986 14.604-7.418 4.485-16.015 7.102-24.255 10.11-3.988 1.456-8.304 2.049-12.501 2.889-8.544 1.71-17.05 4.215-25.676 4.765-12.773.813-25.635.22-38.459.195-1.488-.003-3.052.055-4.448-.36-6.346-1.886-6.795-1.666-7.959 4.784Z"/><path fill="#201A7E" d="M239.017 229.827c3.573-1.196 7.1-1.895 10.53-2.918 1.643-.491 3.819-1.215 4.502-2.499 1.641-3.086 3.997-3.516 7.025-3.447 5.665.13 11.335.037 17.003.037l.03 2.027c-2.17 0-4.458-.425-6.474.134-1.62.449-2.91 2.088-4.346 3.2 1.426.87 2.837 2.464 4.281 2.494 10.642.224 21.291.184 31.937.115 3.127-.02 5.564.29 7.555 3.45.999 1.585 4.18 2.223 6.461 2.464 2.85.301 5.142.342 5.73 3.988.552 3.426 3.363 4.283 6.454 4.109 4.194-.235 6.145 1.174 3.884 6.103-15.283.553-30.072.66-44.859.527-3.738-.034-5.431.929-5.327 5.026a559.77 559.77 0 0 1-.002 27.912c-.098 3.987 1.394 5.19 5.23 5.157 16.449-.144 32.9-.07 49.351-.067 6.025.002 11.344-1.923 15.963-5.788 1.018 2.266 2.814 4.498 2.914 6.804.357 8.258.23 16.542.06 24.811-.033 1.612-.753 4.344-1.71 4.617-5.718 1.628-5.398 5.915-5.222 10.299.026.66-.028 1.323-.432 2.345-4.011-.693-7.619-2.586-11.263-2.658-16.777-.331-33.564-.106-50.347-.201-3.133-.018-4.542.984-4.507 4.285.114 10.634.098 21.27.014 31.904-.023 2.962 1.072 4.165 4.108 4.128 6.472-.078 12.947.105 19.421.18l.518 4.635c-7.038 0-13.81-.009-20.582.003-4.992.009-10.002-.174-14.966.214-1.331.104-2.523 1.984-3.78 3.049 1.346.907 2.584 2.244 4.063 2.613 1.832.456 3.863.109 5.808.109l.163 1.215c-.926.263-1.849.738-2.78.754-4.659.08-9.322-.047-13.979.074-3.154.081-5.716-.22-7.49-3.541-.715-1.339-3.235-1.872-5.039-2.436-2.944-.921-5.974-1.565-9.391-2.511-.486-19.137-.585-38.088-.602-57.04-.027-28.437.003-56.875.093-85.676Z"/><path fill="#201C6D" d="M177.507 416.427c-5.467.831-7.493-4.014-10.395-7.073-5.93-6.249-11.06-13.253-16.942-19.552-5.951-6.375-8.292-14.162-10.151-22.286-2.494-10.907-5.42-21.735-7.37-32.737-1.061-5.985-.31-12.271-.722-18.399-.216-3.219-1.314-6.368-1.767-9.584-.433-3.076-1.667-6.673-.588-9.206 3.092-7.262 1.912-14.719 2.526-22.11a189.31 189.31 0 0 1 3.198-22.387c1.788-8.696 4.06-17.311 6.519-25.847 1.978-6.868 5.292-12.982 10.504-18.229 8.415-8.47 16.024-17.744 24.473-26.178 12.485-12.463 25.835-23.953 41.392-32.552 2.309-1.276 4.755-2.545 7.296-3.119 11.094-2.504 22.209-4.947 33.389-7.022 7.608-1.412 9.833.153 10.135 6.309-11.362 2.736-22.908 4.406-34.04 7.545-14.393 4.059-27.515 11.368-37.957 22.027-12.307 12.564-21.793 27.446-26.085 44.678-3.477 13.957-5.242 28.34-8.285 43.066-.893 1.902-1.591 3.272-1.594 4.644-.063 28.646-.077 57.293.029 85.939.006 1.549 1.142 3.094 1.752 4.64 1.488 10.014 2.208 20.223 4.684 29.986 2.351 9.269 6.538 18.073 9.999 27.447Z"/><path fill="#1D1973" d="M248.27 408.564c.777-6.605 1.226-6.825 7.572-4.939 1.396.415 2.96.357 4.448.36 12.824.026 25.687.618 38.459-.195 8.626-.55 17.133-3.055 25.677-4.765 4.196-.84 8.512-1.433 12.5-2.889 8.24-3.008 16.838-5.625 24.256-10.11 5.82-3.519 10.336-9.384 14.985-14.604 6.07-6.814 8.027-15.776 10.258-24.158 2.814-10.577 3.818-21.637 5.558-32.496 1.998-12.474-.09-24.686-1.471-37.092-1.231-11.049-4.105-21.573-6.865-32.132-1.805-6.904-5.164-13.267-10.349-18.974-4.322-4.757-8.802-8.726-14.256-11.808-1.864-1.053-3.889-1.824-5.855-3.137 15.35.444 29.327 5.515 43.015 13.662.852-.805 2.009-1.898 3.858-3.127 2.218 1.371 4.57 2.621 5.133 4.428 3.256 10.449 6.502 20.935 8.943 31.593 2.164 9.45 4.437 19.124 4.586 28.731.244 15.675-.963 31.393-2.054 47.058-.42 6.043-1.913 12.065-3.434 17.963-1.395 5.407-3.3 10.707-5.317 15.923-3.007 7.78-4.169 16.531-11.231 22.277-3.046 1.633-6.094 3.264-9.139 4.899-16.426 8.817-33.958 13.564-52.599 13.662-28.763.152-57.528.031-86.678-.13Z"/><path fill="#1C186C" d="M396.836 390.439c6.91-6.052 8.072-14.803 11.079-22.583 2.016-5.216 3.921-10.516 5.316-15.923 1.522-5.898 3.014-11.92 3.435-17.963 1.09-15.665 2.297-31.383 2.054-47.058-.15-9.607-2.423-19.281-4.587-28.731-2.441-10.658-5.687-21.144-8.942-31.593-.563-1.807-2.916-3.057-4.815-4.576 4.851-5.701 10.076-11.391 15.938-17.066 10.368 6.436 13.878 16.629 16.608 27.095 2.149 8.239 2.689 16.993 5.587 24.917 3.553 9.711 3.802 19.794 4.142 29.579.584 16.816-.742 33.723-1.806 50.558-.368 5.82-2.213 11.569-3.621 17.293-1.216 4.94-2.866 9.773-4.15 14.698-2.411 9.247-6.047 17.774-12.554 25.036-3.278 3.66-5.76 8.032-8.602 12.082-4.976-5.153-9.953-10.306-15.082-15.765Z"/><path fill="#1C1864" d="M434.577 184.878c3.37 4.463 6.432 9.068 9.478 13.683 5.092 7.714 11.192 14.972 14.958 23.287 3.412 7.534 3.99 16.305 6.321 24.385 5.363 18.594 5.335 37.738 5.444 56.743.083 14.385-1.243 28.858-3.072 43.147-1.163 9.086-4.394 17.907-6.694 26.848-.698 2.715-.824 5.758-2.18 8.087-3.644 6.262-7.501 12.452-11.845 18.242-5.973 7.962-12.472 15.529-18.909 23.571-3.517-3.149-6.869-6.603-10.004-10.527 2.609-1.814 5.926-2.565 7.233-4.604 6.521-10.18 15.843-18.634 18.333-31.359 1.778-9.09 4.881-17.922 7.39-26.869.221-.791.451-1.581.627-2.383 1.612-7.359 3.95-14.654 4.617-22.098.723-8.062.025-16.27-.308-24.404-.561-13.713-1.305-27.419-2.034-41.125-.059-1.124-.563-2.231-.899-3.334-1.655-5.44-3.818-10.781-4.88-16.333-2.098-10.958-5.094-21.467-11.686-30.657-1.837-2.561-4.312-4.826-5.507-7.645-1.5-3.539-3.771-4.796-7.284-4.646 3.529-3.954 7.058-7.908 10.901-12.009Z"/><path fill="#1C1867" d="M423.379 197.014c3.813-.276 6.084.98 7.584 4.519 1.195 2.819 3.669 5.084 5.506 7.645 6.593 9.19 9.589 19.7 11.686 30.657 1.063 5.552 3.226 10.893 4.881 16.333.335 1.103.839 2.21.899 3.335.729 13.705 1.473 27.411 2.034 41.124.333 8.134 1.03 16.342.308 24.404-.667 7.444-3.006 14.739-4.618 22.098-.175.802-.405 1.592-.627 2.383-2.509 8.947-5.611 17.779-7.39 26.869-2.489 12.726-11.811 21.179-18.332 31.359-1.307 2.039-4.624 2.791-7.374 4.291-2.171-1.638-3.983-3.43-5.905-5.524 2.732-4.353 5.214-8.725 8.492-12.385 6.506-7.262 10.143-15.789 12.554-25.036 1.284-4.925 2.934-9.758 4.149-14.698 1.408-5.723 3.253-11.473 3.621-17.293 1.064-16.834 2.391-33.742 1.807-50.557-.34-9.786-.589-19.869-4.142-29.58-2.899-7.923-3.439-16.678-5.588-24.917-2.729-10.466-6.239-20.659-16.333-27.247 1.921-2.663 4.205-5.158 6.788-7.78ZM162.92 358.534c-.704-1.087-1.84-2.631-1.846-4.18-.106-28.646-.092-57.293-.029-85.939.003-1.372.701-2.742 1.435-4.26.31 22.579.227 45.306.229 68.033.001 8.629.198 17.258.211 26.346Z"/><path fill="#201C6D" d="M281.433 146.568c-.656-3.255.777-4.636 3.946-4.587 6.11.095 12.252-.321 18.319.197 2.454.209 4.746 2.309 7.219 3.853-9.605.422-19.316.54-29.484.537Z"/><path fill="#1D1973" d="M240.033 400.01c2.803.482 3.362 2.06 2.049 4.805-.845-.401-1.548-1.123-2.187-2.552.087-1.222.113-1.738.138-2.253Z"/><path fill="#201A7E" d="M240.022 399.584a35.862 35.862 0 0 1-.103 2.357 151.19 151.19 0 0 1-.903-9.494c.388 1.943.692 4.327 1.006 7.137Z"/><path fill="#201C6D" d="M272.387 146.808c.87-.338 2.137-.579 3.514-.53-.965.402-2.041.515-3.514.53Z"/><path fill="#201A7E" d="M239.25 382.702c.282 1.017.297 2.325.081 3.959-.269-1.006-.308-2.338-.081-3.959Zm-.204-162.451c.39-.035.463.227.18.641-.167-.065-.215-.231-.18-.641Z"/><path fill="#FCFCFD" d="M307.387 368.27c-6.88.019-13.355-.163-19.827-.085-3.037.037-4.131-1.166-4.108-4.128.084-10.634.1-21.27-.014-31.904-.035-3.301 1.374-4.303 4.507-4.285 16.783.095 33.57-.13 50.347.201 3.644.072 7.252 1.965 11.236 3.127 6.318 5.283 10.039 11.452 8.768 19.696-1.543 10.009-9.694 17.054-20.117 17.212-10.126.154-20.256.058-30.792.166Z"/><path fill="#FAFAFC" d="M354.077 281.539c-4.749 4.177-10.068 6.101-16.093 6.1-16.451-.003-32.902-.077-49.351.067-3.836.033-5.328-1.17-5.23-5.157.228-9.3.238-18.613.002-27.912-.104-4.097 1.589-5.06 5.327-5.026 14.787.132 29.576.026 44.814-.135 2.084-.026 3.717.142 5.354.202 12.505.457 20.272 9.106 19.358 22.4-.256 1.391-.371 2.119-.487 2.846a494.966 494.966 0 0 0-3.694 6.615Z"/><path fill="#201A7E" d="M358.053 274.663c-.168-.466-.053-1.194.294-2.213.15.456.07 1.203-.294 2.213Z"/></g><defs><clipPath id="a"><path fill="#fff" d="M0 0h600v600H0z"/></clipPath></defs></svg>